<svg xmlns="http://www.w3.org/2000/svg" width="13.709" height="13.708" viewBox="0 0 13.709 13.708">
  <path style="fill:#F43908;" id="Path_41" data-name="Path 41" d="M263.147,116.375h-1.461V115.19h1.55s.378,0,.378.555S263.4,116.375,263.147,116.375Zm4.045,0a.949.949,0,0,0-.933.819H268A.787.787,0,0,0,267.192,116.375Zm-3.956.819h-1.55v1.423h1.474c.214,0,.63-.063.63-.693C263.8,117.194,263.236,117.194,263.236,117.194Zm8.051-6.371v11.732a.988.988,0,0,1-.989.988H258.567a.988.988,0,0,1-.989-.988V110.823a.988.988,0,0,1,.989-.988H270.3A.988.988,0,0,1,271.287,110.823Zm-5.254,4.392h2.192v-.655h-2.192Zm-2.1,1.462a.921.921,0,0,0,.806-1.008,1.359,1.359,0,0,0-1.5-1.411h-2.772v5.329h2.772a1.579,1.579,0,0,0,1.688-1.575C264.924,118,265,116.677,263.929,116.677Zm3.25-1.084a2,2,0,0,0-2.041,2.054,1.892,1.892,0,0,0,2.041,2.041s1.827.1,1.827-1.411h-.932s.025.567-.857.567a.86.86,0,0,1-.932-.92h2.759C269.031,117.912,269.334,115.593,267.179,115.593Z" transform="translate(-257.578 -109.835)" fill="#222"/>
</svg>
