<svg xmlns="http://www.w3.org/2000/svg" width="13.709" height="13.709" viewBox="0 0 13.709 13.709" >
  <path style="fill:#F43908;" id="Path_45" data-name="Path 45" d="M337.178,115.276a9.915,9.915,0,0,0-1.525-2.124,3.561,3.561,0,0,1,.954-.131,3.79,3.79,0,0,1,2.489.9A4.656,4.656,0,0,1,337.178,115.276Zm-2.068,2.545a4.652,4.652,0,0,1,1.9-1c-.094-.219-.184-.415-.272-.59a11.372,11.372,0,0,1-3.481.515q-.364,0-.543-.009c0,.024,0,.056,0,.093s-.005.069-.005.094a3.772,3.772,0,0,0,.983,2.573A5.347,5.347,0,0,1,335.11,117.821Zm.407.59a5.313,5.313,0,0,0-1.3,1.59,3.823,3.823,0,0,0,3.762.562,13.758,13.758,0,0,0-.73-3.1A3.987,3.987,0,0,0,335.517,118.411Zm.884-2.855a9.482,9.482,0,0,0-1.562-2.105,3.8,3.8,0,0,0-1.268,1.039,3.976,3.976,0,0,0-.744,1.469c.137.012.34.019.608.019A10.254,10.254,0,0,0,336.4,115.556Zm7.061-4.5v11.731a.989.989,0,0,1-.989.989H330.742a.989.989,0,0,1-.989-.989V111.057a.989.989,0,0,1,.989-.989h11.731A.989.989,0,0,1,343.462,111.057Zm-2.176,5.866a4.581,4.581,0,0,0-.627-2.349,4.644,4.644,0,0,0-1.7-1.7,4.714,4.714,0,0,0-4.7,0,4.644,4.644,0,0,0-1.7,1.7,4.712,4.712,0,0,0,0,4.7,4.647,4.647,0,0,0,1.7,1.7,4.714,4.714,0,0,0,4.7,0,4.647,4.647,0,0,0,1.7-1.7A4.58,4.58,0,0,0,341.286,116.923Zm-3.219.43a13.486,13.486,0,0,1,.646,2.845,3.9,3.9,0,0,0,1.207-1.226,3.774,3.774,0,0,0,.561-1.619q-.682-.046-1.244-.047Q338.723,117.306,338.067,117.353Zm-.552-1.413c.094.2.2.452.318.758q.693-.066,1.507-.065c.387,0,.77.009,1.151.028a3.759,3.759,0,0,0-.917-2.265A4.634,4.634,0,0,1,337.515,115.94Z" transform="translate(-329.753 -110.068)" fill="#222"/>
</svg>
