<svg xmlns="http://www.w3.org/2000/svg" width="13.709" height="13.708" viewBox="0 0 13.709 13.708">
  <path style="fill:#F43908;" id="Path_43" data-name="Path 43" d="M235.2,110.823v11.732a.988.988,0,0,1-.989.988h-3.774l.008-4.8h1.712a.3.3,0,0,0,.3-.268l.189-1.6a.3.3,0,0,0-.3-.339h-1.909V115.2c0-.606.168-1.019,1.037-1.019h.8a.3.3,0,0,0,.3-.3v-1.346a.3.3,0,0,0-.3-.3h-1.311A2.521,2.521,0,0,0,228.276,115v1.543h-1.284a.3.3,0,0,0-.3.305l.006,1.6a.3.3,0,0,0,.3.3h1.287l-.008,4.8h-5.8a.988.988,0,0,1-.989-.988V110.823a.988.988,0,0,1,.989-.988h11.731A.988.988,0,0,1,235.2,110.823Z" transform="translate(-221.491 -109.835)" fill="#222"/>
</svg>
