<svg xmlns="http://www.w3.org/2000/svg" width="13.708" height="13.708" viewBox="0 0 13.708 13.708">
  <path style="fill:#F43908;" id="Path_42" data-name="Path 42" d="M196.142,114.684c-.1-2.205-1.762-1.983-3.882-1.983l-.018-.012c-1.275,0-1.424.006-1.931.024-2.205.113-1.98,1.695-1.98,3.893,0,1.624-.121,2.695.549,3.362.582.583,1.379.554,3.368.554,1.931,0,2.766.053,3.368-.548s.554-1.4.554-3.362C196.17,115.338,196.165,115.187,196.142,114.684Zm-3.882,4.377a2.449,2.449,0,1,1,2.449-2.449A2.449,2.449,0,0,1,192.26,119.061Zm2.546-4.422a.572.572,0,1,1,.572-.573A.573.573,0,0,1,194.806,114.639Zm-.957,1.973a1.59,1.59,0,1,1-1.589-1.589A1.589,1.589,0,0,1,193.849,116.612Zm4.275-6.777H186.392a.988.988,0,0,0-.988.988v11.732a.988.988,0,0,0,.988.988h11.732a.988.988,0,0,0,.988-.988V110.823A.988.988,0,0,0,198.124,109.835ZM197,118.578a2.611,2.611,0,0,1-1.616,2.553,8.8,8.8,0,0,1-3.124.251c-1.793,0-3.048.12-3.969-.8-.9-.9-.8-2.112-.8-3.969,0-1.814-.117-3.051.8-3.969a2.85,2.85,0,0,1,2-.771c.879-.039,3.054-.041,3.932,0A2.629,2.629,0,0,1,197,114.646C197.039,115.525,197.042,117.7,197,118.578Z" transform="translate(-185.404 -109.835)" fill="#222"/>
</svg>
