<svg xmlns="http://www.w3.org/2000/svg" width="13.709" height="13.708" viewBox="0 0 13.709 13.708">
  <path style="fill:#F43908;" id="Path_40" data-name="Path 40" d="M162.036,109.835H150.3a.988.988,0,0,0-.989.988v11.732a.988.988,0,0,0,.989.988h11.731a.988.988,0,0,0,.989-.988V110.823A.988.988,0,0,0,162.036,109.835ZM154.179,120.2h-1.67v-5.023h1.67Zm-.835-5.709h-.011a.955.955,0,1,1,.011,0ZM160.2,120.2h-1.669V117.51c0-.675-.242-1.136-.846-1.136a.913.913,0,0,0-.856.611,1.143,1.143,0,0,0-.055.407V120.2H155.1s.021-4.552,0-5.023h1.669v.711a1.658,1.658,0,0,1,1.5-.829c1.1,0,1.922.718,1.922,2.261Z" transform="translate(-149.316 -109.835)" fill="#222"/>
</svg>
