<svg id="Group_6" data-name="Group 6" xmlns="http://www.w3.org/2000/svg" width="135.315" height="135.281" viewBox="0 0 135.315 135.281">
  <rect id="Rectangle_2" data-name="Rectangle 2" width="135.315" height="135.281" fill="#f43908"/>
  <g id="Group_3" data-name="Group 3" transform="translate(-0.072)">
    <g id="Group_2" data-name="Group 2">
      <rect id="Rectangle_3" data-name="Rectangle 3" width="58.265" height="54.842" transform="translate(38.78 32.48)" fill="#fff"/>
      <g id="Group_1" data-name="Group 1">
        <path id="Path_1" data-name="Path 1" d="M88.734,41.408c0,4.891-.04,9.781,0,14.591-.12,3.287.081,7.3-.04,10.624.04.842.24,2.245-.962,2.245a23.809,23.809,0,0,1-3.368,0c-1.563.08-1.474.04-3.037.04-1.122,0-2.805.281-2.686-1.363,0-2.927.041-6.575-.04-9.541-.079-.521.4-5.372-.6-4.49-2.084,3.448-3.177,6.911-5.061,10.519a5.56,5.56,0,0,1-1.033,2.226c-.04.041,0,.121,0,.2-.279.361-.4,1.4-.881,1.323-.08.12.241.16.08.281a2.827,2.827,0,0,1-1.483.962c-1.563-.281-3.207.16-4.691-.241-.8-.32-.92-1.162-1.282-1.8-.08-.08-.16-.16-.08-.28-.321-.08-.121-.522-.321-.682-.441-.481-.642-2-.961-2.6A13.207,13.207,0,0,1,61,60.65c.121-.2-.2-.08-.24-.2-.441-.922-.882-1.884-1.323-2.766-1.844-3.247-2.886-7.5-2.847-.561.12,3.126.041,7.022.041,10.149.16,1.482-.6,1.6-1.885,1.563-1.4.04-2.845-.081-4.249.08-1.2-.04-2.365-.08-3.568-.04-.681-.161.495.281.174-.6-.04-.121-.16-.281,0-.361a.076.076,0,0,0,0-.121c-.321-.481,0-1.2-.241-1.683.041-.081.12-.081.2-.121-.321-.44-.04-.961-.081-1.483-.12-.561.121-1.162-.12-1.643.321-.762-.039-1.764.12-2.566,0-.641-.039-1.89-.12-2.491a.3.3,0,0,0,0-.481,1.266,1.266,0,0,0,.081-.562c0-1.644.08-3.327-.081-4.93a22.524,22.524,0,0,0,.081-3.689c-.081-.44.24-.961-.081-1.322.241-.282-.039-.8.161-1,.04,0,.12,0,.12-.08-.481-.44,0-2.606-.161-3.407-.039-1.4-.039-2.485,1.724-2.084a15.126,15.126,0,0,1,3.007-.081.9.9,0,0,1,.722.081c.161-.081.28-.161.481-.04,2.044-.121,1.83,0,3.875-.081,1.123.081,2.325-.28,3.327.281-.48.441-.561-.16-.841-.04-.161.16.04.24.2.2,0,.08-.04.16.04.2.04-.28.441-.04.6-.2a.194.194,0,0,1,.281.04,5.028,5.028,0,0,1,1.122,1.964c.722,1.644,1.524,3.247,2.205,4.851.922,1.924,1.8,3.888,2.686,5.813.441,1,1.2,2.886,1.964.881,2.005-4.249,3.969-8.618,5.894-12.827.681-1.484,2.525-1.123,3.887-1.163,1.443.04,2.887-.04,4.33.04,1.6-.04,1.554-.04,3.2-.04,1.123.121,3.087-.441,3.047,1.283m-41.107,9.06c-.04-.12-.28-.2-.4-.2,0,.12.28.321.4.2m-.28,6.614c-.12.08-.12.2.04.2.12-.04,0-.121-.04-.2m.2-11.224a.536.536,0,0,0-.16-.121c-.12.16.08.281.16.121m.441,10.7c-.04-.08-.12-.04-.241-.04.081.12.2.161.241.04m.08,11.551a.187.187,0,0,0,0,.2c.121-.08.121-.2,0-.2m.161-13.4c-.12.08.04.12.16.12.24-.08-.08-.12-.16-.12m.6,7.5c0,.12.04.12.121.24.12-.16.12-.321-.121-.24m.2,5.491.041.04c.159-.08.28.121.44.08.482-.44-.241-.4-.481-.12m.2-16.482c0-.24.161-.16.121-.4-.24-.04-.361.723-.121.4m.081,5.051c.12,0,.2,0,.2-.12-.04-.12-.2,0-.2.12m.2,4.256c-.12.04-.12.16-.04.28.04-.12.121-.2.04-.28m.522-9.948c-.08-.12-.16-.24-.241-.08.04.08.121.08.241.08m0,17.083c0-.2-.16-.24-.241-.12,0,.081.2.24.241.12m-.08-12.753.04-.04c-.08-.2-.241-.041-.04.04m.279-13.35c-.04-.08-.2-.04-.279-.08.04.2.119.241.279.08m.2,14.512c-.08.16-.08.28,0,.361-.04-.121.081-.2,0-.361m1.243,11.671c-1.444-.521-1.363.562-.762,0,.121.161.241.161.441.121.081-.041.521.04.321-.121m-.881-7.135-.121-.12c-.12.08.04.2.121.12m.36-4.816c0,.079.08.079.12,0-.04-.121-.12-.121-.12,0M51.4,44.815c.04.08.28.04.28-.04-.08-.04-.2.04-.28.04m.24-2.765c.12.28.2,0,.24-.161Zm0,.761c.16.04.16.04.2-.12-.08.04-.16.04-.2.12m.4,13.068c-.04-.079-.241-.079-.321-.119-.2.2.24.119.321.119M53.72,67.632c-.842-.081-.681-.121-.882-.882-.44-.362-.681.24-.44.6.161-.041.4-.121.48.08.081.24,1.163.641.842.2M52.678,50.187c0,.161.241.161.2,0-.04-.08-.08-.08-.2,0m.12-8.739a.267.267,0,0,0,.241.04c-.04-.08-.161-.161-.241-.04m.161-.641c.12,0,.12,0,.2-.081a.113.113,0,0,0-.2.081m.241,1.162c-.161-.08-.161.121-.121.2.081.081.121-.119.121-.2M53.36,55.2c-.361.12-.361.321,0,.16.119.121.16-.241,0-.16m.24,1.6c0,.161.161.04.12-.08-.04.04-.12-.039-.12.08m.361-16.115c-.08-.12-.16-.04-.2.08.04.081.12-.04.2-.08M54,56.32c.161-.12-.12-.08-.2-.04.08.161.08.161.2.04m-.16-6.053a.172.172,0,0,0,.16-.16c-.08-.161.161-.161.2-.321-.2-.079-.361.321-.361.481m.442,17.484c-.081-.119-.121-.16-.282-.04-.2.2.2.241.282.04m.118.642c-.118.081-.279.24-.04.32.121-.04.04-.239.04-.32m.281-27.907c-.2,0-.321-.12-.321.16.081-.12.241.04.321-.16m.081,14.351c-.12.041-.2-.04-.281.041.04.119.2.04.281-.041m.12-5.452c-.08.081-.12.161-.24.081-.36.08-1.978.16-1.857.2.32-.04,2.3-.521,2.1-.281m-1.536,7.256c-.081-.039-.121,0-.241.041.08.119.241.119.241-.041m.24-16.075c0-.121-.12-.04-.2,0,.04.12.16.12.2,0m-.16.6c-.08.08,0,.12.04.2.08-.041.08-.2-.04-.2m.521,12.827c-.08.081-.121.12,0,.2.08-.081.12-.12,0-.2m.841,2.285c.041-.12-.08-.24.041-.321-.24-.08-.081-.08-.28,0,.08.241.119.281,0,.482.119,0,.159-.081.2.12.2.08,0-.2.04-.281m.361,1.6c-.12-.161-.2-.08-.28-.041-.2.2.16.121.28.041m-.28-16.557c0,.081.12.041.12,0,.04-.2.241-.28.2-.44-.321-.04-.281.2-.321.44m.241,5.052c-.04-.16-.322-.04-.161.08.08-.04.121-.04.161-.08m0-5.853c-.04,0-.081-.12-.161-.04-.04.16.121.2.161.04m.2,15.393c-.12-.08-.2-.159-.24-.04,0,.161.12.12.24.04m-.08.522c0,.08-.12.161-.081.28.041-.119.161-.16.081-.28m.16,1.242c-.08-.12-.241-.08-.241,0,.041.121.161.04.241,0m.24-17.238c-.08-.079-.159-.119-.2,0,0,.121.119.081.2,0m.08,26.625c-.12.04-.12.16,0,.16.121-.04.041-.08,0-.16M56.193,55.6c0-.08-.2-.08-.241,0,0,.12.161.08.241,0m-.241.561c0,.12.121.2.161.08s-.12-.241-.161-.08m1.242-15.594c-.28-.24-.36-.36-.721-.121-.44.161-.36.281.081.281.159-.08.481,0,.64-.16m-.88,25.742c-.121.04-.04.121,0,.2.079-.08.119-.2,0-.2m.2-13.516c-.12.041-.16.161-.239.241a.188.188,0,0,0,.239-.241m.281-11.023c.04-.04-.081-.081-.04-.121.04-.2-.44-.12-.321,0,.28-.04.121,0,.361.121m.241.8c-.08-.16-.161.041-.281.161.2.32.362.08.281-.161m1.523-1.763c.04.04.121,0,.121-.081-.081-.2-.4.081-.562-.08-.12-.04-.28-.12-.441-.16,0,.12-.08,0-.12,0-.161.04-.362.12-.321.28.241-.12.241.041.361.161-.04-.161.161-.4.321-.2,0,.04.04.04.12.081.16.04.36-.041.521,0M57.315,42.49c-.121.04,0,.521,0,.6Zm.4.442c-.12.159-.08.239.08.32.081-.121,0-.2-.08-.32m.762,7.736c-.121-.16-.2-.16-.321.08.12-.08.24,0,.321-.08m-.041-2.044c.2-.04.242-.161.242-.321-.2-.081-.282.08-.242.321m.161,6.413c-.161-.04-.12.2,0,.2s.161-.241,0-.2M59,40.486c-.159,0-.08.12,0,.24.081-.08.161-.2,0-.24M59.239,55.2c-.08,0-.08.16-.04.16.121,0,.081-.12.04-.16m.522-14.432a.346.346,0,0,0-.281.241c.2.04.2-.12.281-.241m.44,17.158c0-.161-.2-.12-.2.04.08.08.2.04.2-.04m.322-2.686c-.041-.241-.281-.04-.161.08.08.08.12-.04.161-.08m.24,2.525c-.041.121-.081.241.04.241.16-.04.04-.12-.04-.241m.04-1.8c-.04.121,0,.281.12.2.04-.12-.04-.161-.12-.2m.6-1.242c-.079-.12-.12-.12-.2-.04h-.04a.189.189,0,0,0,.24.04m.922-5.131a.687.687,0,0,0-.961,0c.159.16.279.08.44-.04.2-.121.2.24.521.04m-.842,7.135c-.08.08-.08.241.04.241.2,0,.161-.2-.04-.241m.682-2.765a.42.42,0,0,0-.2.36,1.044,1.044,0,0,0,.2-.36m0-1.6c-.16,0-.2.28,0,.32.2,0,.16-.28,0-.32m.04,1.2c-.12.04-.12.121-.08.241.12-.12.12-.12.08-.241m.6,8.378c.04.161.2.281.04.442.161-.08.161-.281-.04-.442m.241-6.293c-.04.04-.12.04-.12.121.08.079.2.04.12-.121m.882-5.973a.538.538,0,0,0-.2-.361c-.16.2-.04.281.2.361m.24,17.676a1.8,1.8,0,0,1,.16.281c.241-.12,0-.241-.16-.281m.08-14.95c-.04.2.361.28.361.08.04-.2-.321-.321-.361-.08m1.724,16.193a4.468,4.468,0,0,1-.44-.441c.08.24.279.441.44.441m-.24-.8c.36,0,.2-.12.039-.16-.079.04-.159.12-.039.16m.521-.16c-.2,0-.161.16.04.2.16-.04.16-.24-.04-.2m.56-.08c-.079.04-.12.04-.16,0-.159.12.081.16.2.16,0-.04.04-.241-.041-.16m.642-.2c-.08-.08-.12-.12-.16,0,.04.081.08.081.16,0m.441-10.9c-.16-.121-.12.12-.241.08.161.24.362.081.241-.08m.6,10.42a1.737,1.737,0,0,0-.28.2c.24-.04.24-.08.28-.2m.121-10.179c0-.161-.2-.121-.2.039-.04.16.241.08.2-.039M68.7,66.7c-.04.04.04.08.08.16.08-.12-.04-.28.12-.24.642-.04,0-.882-.2.08m.321-11.984c.12.04.16-.08.2-.2.08-.08.361-.24.16-.32Zm.36,1.885c.2.119.321-.242.04-.2-.2.04-.44.4-.04.2m.08,2.684c.362.041,0-.079-.16-.079-.04.079.12.079.16.079M69.7,55.6c-.12.08-.12-.161-.281,0,.2,0,.081.08.2.12s.161-.08.08-.12m.121-.482a1.093,1.093,0,0,1-.362.041c.041.2.322.16.362-.041m-.321-1.2c.08.04.12,0,.241,0-.081-.081-.161-.121-.241,0m.241,11.863a.12.12,0,1,0-.241,0c0,.161.241.12.241,0m.2-11.944c-.12,0-.16.081-.08.16.16.041.2-.16.08-.16m.441,5.372c.08.079.16.039.24.039.121-.28-.16-.2-.24-.039m.24-2.686c-.08-.04-.12-.04-.16-.08-.121.12.04.2.16.08m.081,8.937c.12-.161.2-.121.28.08.241-.6-.481-.681-.28-.08m.08-9.378c.04-.081.119-.081.16-.161-.16,0-.16,0-.16.161m.641.4c-.241-.562-.8-.281-.441-.04.16.08.241-.04.441.04m-.08-6.334a.194.194,0,0,0,0-.281c-.08.08-.08.16,0,.281m.241-2.686c.12,0,.4.16.4-.04.04-.081.04-.081.16-.081.4.161.161-.44.081-.6-.2-.04-.161.121-.281.161-.24.04-.28.4-.36.561m.44,11.305c0-.2-.161-.4-.36-.361.119.12.32.16.36.361m.08-10.663c0-.08-.04-.2,0-.241.161-.08,0-.281-.12-.2a.573.573,0,0,0,.321.681c.28-.081.04-.4-.2-.24m.4,8.738c-.081.04-.081.04-.041.281.081-.16.081-.2.041-.281m.2-1.081c-.12-.041-.24.079-.12.159.08,0,.12-.08.12-.159m.081-7.136c0-.081-.081-.2-.161-.12.04.08.04.12.161.12m.841-.161c-.04-.08-.04-.321-.16-.241-.039.121,0,.321.16.241m1.8,7.737c-.08-.281-.36,0-.44-.2-.081-.08-.2-.04-.281,0-.2.121-.321-.08-.48-.08-.282.241,1.041.241,1.2.281m-1,.2c-.2.12-.24.16-.12.36.2-.04.12-.2.12-.36m2.205-5.533c.081.04.161.161.24.161.081-.161-.079-.281-.24-.161m2.726-9.1c-.08-.081-.16-.121-.2,0,.08.12.08.12.2,0m.2,16.756c-.08-.04-.2-.12-.32-.04.12.16.2.2.32.04m.161,1.764c-.161-.041-.161-.041-.121.16a.571.571,0,0,1,.121-.16m.321-4.489c-.121-.04-.241.159-.2.24.12-.041.12-.161.2-.24m3.687,4.368c-.079.08-.28.321-.16.442.041,0,0-.04,0-.081a.389.389,0,0,0,.16-.361M83.693,45.5c-.16-.08-.16.12,0,.16,0-.08.119-.12,0-.16m-.972,13.87c-.08-.16-.241-.121-.16-.321-.081.041-.161.161-.081.2.121,0,.2.361.241.121m.36-15.674c-.641.08.04.481-.04.16-.08-.08,0-.119.04-.16m1.8,6.775c-.2-.16-1.042.12-.561.24.161-.08.161-.08.241.08-.281.16.32.281.24,0-.08-.2.161-.08.08-.32m-.36-1.844c.079-.12.079-.161-.04-.281,0,.12-.08.2.04.281m.882.761a.893.893,0,0,0-.562.121c.08.04.562.08.562-.121m0-.281a1.758,1.758,0,0,0-.441.121c.2.08.361.04.441-.121m-.2-.52c.121.12.2.08.28-.161,0,.04.04.081.04.12.161-.321-.2-.16-.32.041m.04-.442.121-.119c-.121-.081-.2,0-.121.119m.521.562a.407.407,0,0,0-.281.161c-.36-.081-.079.36,0,0,.121.159.2-.081.281-.161m.361-2.365c.481-.241-.16-.161-.4-.2.08.161.241.281.4.2m-.16.12c-.081.079-.2.2-.081.28.081-.04.241-.2.081-.28m.521,16.757c-.121-.081-.281-.2-.32-.081.039.121.2.121.32.081m-.241-16.837c-.079.12.08.12.08.2.04-.16.04-.16-.08-.2m.962.12a1.827,1.827,0,0,0-.079-.4.311.311,0,0,0,.079.4m.562-.24c.2-.04.32-.121.481-.161-.081-.12-.6-.08-.481.161m.521,1.242c-.121-.04-.4.04-.361.161.16.04.24-.081.361-.161m.16,6.535a.112.112,0,0,0-.2.079c.04.161.16,0,.2-.079m.04.44c-.08-.04-.12.081-.2.081,0,.12.24.04.2-.081" fill="#222"/>
        <path id="Path_2" data-name="Path 2" d="M47.626,78.108c-.654-.042-.535-.34-.594-.531.059-.191-.239-.489.238-.574-.417-.063-.179-.319-.179-.445-.059,0-.059.021-.059.021.059-.553-.3-1.169.119-1.7.178-.128-.358-.212-.06-.34a5.367,5.367,0,0,1,.6-.276c.179-.064.179-.192.417-.256.3-.021.478-.148.716-.169a1.106,1.106,0,0,0,.356-.085c.06-.043.06-.107.3-.107,0-.021.06-.042.119-.042.3-.043.3-.191-.059-.106-.06.021-.179.148-.3.084-.179-.063-.238.086-.358.022-.356.021-.416.191-.595.277-.358,0-.238.063-.6.084.119.042.119.106-.06.106a.807.807,0,0,1-.356.064c-.238.085-.238.085-.06.17-.178-.042-.178.021-.238.063.06-.127-.06-.552.119-.509.179-.043.06-.085.238-.085.715-.085.12-.106-.238,0,.06-.021.06-.021.06-.042-.358.042-.119-.234-.119-.319-.06-.063.178-.042.3-.063.536-.022-.178.169.953-.022-.179-.021-.417,0-.656-.021v.043c-.594-.043-.773.063-.475-.277-.06-.277-.477-.787.475-.914-.594-.149,1.549-.3,1.728-.149.3-.042.06-.084.358,0,1.191-.212,3.275.064,4.7-.084,6.552.106,13.163-.085,19.655.063-.06,0-.06-.021-.119-.042,2.977.021,5.9-.021,8.874,0a18.466,18.466,0,0,1,2.74.085c-.059-.043-.059-.106.119-.085.3.021.655-.064.834.042,0-.042.119-.042.178-.042,1.43-.043,2.144.382,1.966.849-.12.128.119.532-.12.554a.637.637,0,0,0-.356.084c.356-.084.118.106.356.042-.059-.063.06-.063.179-.063.119.127-.3.063-.3.148.179,0,.3.128.06.149.119.022.238.022.179.085-.12.128.119.234-.06.34.06.255,0,.574.06.85-.06.744.238,1.678-.179,2.443.3-.063.059.234.119.319.06.107-.06.192-.416.128-.239.064-.716-.021-.895.085.3-.085.6.084.835,0,.06-.042.476-.064.357.042,0,.085-.416.085-.237.17.058.064-.537.106-.239.042a.523.523,0,0,0-.179-.021c.3-.085.119-.254,0-.127.119.064-.239.127,0,.191a3.785,3.785,0,0,1-1.31.043c-.12.063-.477-.022-.418.063-.475-.063-1.012.043-1.489-.021-.059-.042-.237.043-.356-.021.237-.021.237-.021.3-.085-.3.085-.238-.085-.536-.043.06-.021.12-.021.12-.063-.12,0-.179.063-.358.021-.06.021-.358.149-.06.127.06-.106.656-.064.418.043a.941.941,0,0,1-.477-.021,9.255,9.255,0,0,1-1.549.042,7.909,7.909,0,0,1-1.786-.064,19.794,19.794,0,0,1-3.1.064c-.238,0,.06-.085-.179-.085-.179-.043.06-.064.12-.064-.3-.085-.239.085-.12.149-.952.043-1.964,0-2.977,0-2.025-.021-5,.043-7.267,0,.119,0,.179-.064,0-.042a2.368,2.368,0,0,1-.773.042c-1.609.021-3.335,0-4.825,0a12.174,12.174,0,0,1-1.787-.021c-.358-.107.537-.021-.358-.191.18,0,.12-.086,0-.086-.3.064.18.17-.356.128,0,.042.3.042.239.106a1.073,1.073,0,0,0-.6.022c-.12-.043-.179,0-.3,0-.179-.022-.059-.043.06-.043-.476-.064-.416.106-.714.085-.119,0-.775.064-.716-.021a.363.363,0,0,1,.3,0c.3-.107-.06-.234-.12-.128-.416.043-.059.3-.714.085.06-.021.119,0,.179-.021-.119-.085-.238-.085-.477-.064l.119-.106c-.119,0-.3.043-.238.085-.358.128.536.064.3.17a4.218,4.218,0,0,1-.6-.064c.119.171-.774.043-1.013.064-.238,0-.833.085-.833-.064.416.107.119-.021.535,0,0-.042-.177-.064-.237-.085.237,0,.178-.085.237-.149,0-.126-.356-.042-.535-.084.179-.064,0-.064-.119-.042a.318.318,0,0,0-.358-.086c.179.043.239.128-.06.107-.119.021-.178.084-.356.042,0,0-.119-.021-.059.042.059.085-.358-.021-.358.064-.06.085.119.319-.358.276-.119-.042-.238.022-.3-.042h-.06a4.061,4.061,0,0,1-.475.021,5.993,5.993,0,0,1-1.49-.042c-.178.191-2.322-.064-1.966-.192M50.5,72.159c-.106,0-.142.021-.142.085l.107-.043c-.035.064.035.064.107.043,0-.021-.036-.064.035-.043.071,0,.071,0,.106-.042.071-.064-.071-.17-.177-.17.071.043.177.127.036.127-.072,0-.107,0-.072.043m.783.255a.261.261,0,0,0-.142.021c0,.085-.214.064-.178.149.213-.022.356-.191.568-.17.036-.042,0-.128.072-.149a.556.556,0,0,0,.427-.085c.071-.085.568.021.426-.127a.142.142,0,0,0-.213,0,.686.686,0,0,1-.356.021,1.3,1.3,0,0,1-.284.021c-.072,0-.072,0-.036.042.036.022,0,.043-.071.064-.107.064-.142.149-.32.171Zm2.773-.361a.554.554,0,0,0-.213.127c.106,0,.142-.064.213-.043.036-.021,0-.063,0-.084M51,72.137c-.035,0-.035.022-.071.022.107.064.107.064.214.021.071.043.071.021.071-.021s-.142.021-.214-.022m-2.915.086c.142-.086-.107-.064-.178-.043v-.021c-.107.085.106.064.178.064m.889.085c-.142-.043-.071-.064-.178-.107-.071.064.071.171.178.107m15.04-.085a.163.163,0,0,0,.214.042c-.036-.042-.142-.042-.214-.042m4.978.042a.141.141,0,0,0,.213-.021.373.373,0,0,0-.213.021m-19.521.064c-.107-.064-.249-.149-.284-.021.071,0,.284.085.284.021m1.458.064c.107-.043.356-.021.249-.128-.035,0-.071.043-.106.064-.072-.043-.179-.021-.25-.064-.036.085.036.085.143.064a.062.062,0,0,1-.036.064m19.556.021c.071.021.178-.021.178-.064-.035-.064-.178.022-.178.064m.676-.021c-.177-.021-.106.149.071.042.143.043.036-.021.036-.042,0-.064-.072-.021-.107,0m-.888.106h-.036c.071.063.177,0,.212-.064-.141-.042-.176-.021-.176.064m-21.015,0c-.107-.021-.143-.106-.213-.042-.036,0-.036.021,0,.021.07-.043.177.106.213.021m21.654-.042c-.071-.043-.071.085-.178.021.036.106.036.064-.035.148.32,0,.035,0,.213-.169m-22.187.977c.071,0,.142.021.213.021a.441.441,0,0,1,.249-.191c.106-.192.427-.3.675-.4a.5.5,0,0,1,.392,0,.3.3,0,0,0,.213-.127c.035-.043.213-.043.319-.022-.035-.169-.035-.042-.142-.042-.248-.043.107-.149.249-.127-.071-.085-.213-.043-.284-.022s-.071-.021-.142-.021c-.035.021,0,.043.035.043-.106.084-.355.02-.427.106-.035.042-.035.127-.142.127-.141-.021-.569.149-.5-.042-.143-.022.071.127-.072.127,0,.022.036.043,0,.043-.035.064-.355.064-.249.127-.141.021-.035.128-.177.085-.249-.043-.178.106,0,.127-.035,0-.071.043-.071.043-.32-.127.071.064-.178.086.107.021.071.042.036.063m21.9-.85c0-.022-.036-.022-.036-.042.142-.043-.036-.043-.143-.043.036.063.072.085.179.085m-21.69.17a.354.354,0,0,1-.249-.106c-.035.063.143.191.249.106m-.427.128c.071,0,.071-.086.178-.043.143-.085-.178-.085-.178.043m-.533.085c.142-.043-.036-.085-.143-.107.072.043.036.128.143.107m19.165-.021c.036.042.071.042,0,.063.284.106.284-.063,0-.063m-19.272.212c.071-.043.142-.043.178-.107-.071.085-.391-.021-.284.064.035,0,.035,0,.035.021-.035.128.427.043.071.022m20.2-.064c-.07-.022-.106-.043-.177,0,.107,0,.036.042.071.085,0,0,0,.021.036.021,0-.085.1-.021.141-.064-.036-.021,0-.064-.071-.042m-3.769,0a2.177,2.177,0,0,1,.071.212c.071-.042.036-.191-.071-.212M48.4,73.158c-.106-.086-.248-.086-.284.042.072.021.284.021.284-.042m4.125.106c-.178,0,.107.021.036.085.107,0,.355-.107.213-.128-.106.064-.106.107-.249.043m17.423.107c-.107-.022-.107,0-.142.042-.178-.042,0,.063-.142.084-.107.043.035.085.106.106.036.043.036-.021.071-.021-.035-.148.178-.021.285.021,0-.106.071-.084.213-.148-.142,0-.5-.063-.177-.106-.071-.064-.143.022-.214.022M48.3,73.413c-.071.084-.249.084-.391.042a.123.123,0,0,0,.071.127c.142-.106.5,0,.32-.169m21.263.233c-.107-.064-.142-.149.035-.064-.035-.127-.319-.106-.462-.127,0,.085.285.17.427.191m-21.8-.106c.035.063-.036.106-.072.149.072,0,.107.021.178.021,0-.043-.071-.021-.106-.043.106-.042.106-.106,0-.127m22.152.063v.107c.071.064.213-.149,0-.107m-1.067.128c.071.022.177-.021.142.043.106.042.035-.171-.107-.107a.061.061,0,0,1-.035.064m-16.6.022c0-.043-.108-.022-.178-.022-.071.064.284.191.178.022m1.813.021c.036.064.249.021.321.021-.072-.064-.214-.021-.321-.021m16.463.276c.035-.085-.072-.17.142-.212-.214,0-.107.021-.214-.064-.035.021.036.042.036.085-.107.021-.107-.021-.107-.064-.07.021-.1.064-.177.085h.142c0,.064-.177.106-.177.17.071,0,.071-.106.212-.085.107-.063.107.021.143.085m-.178.234a3.4,3.4,0,0,0-.64.127,5.788,5.788,0,0,0,.782-.17c.036-.021,0-.042-.036-.021-.071.043-.354-.106.107-.106-.248-.064-.461.042-.213.17m-.675-.149c-.072.064.071.085.142.106a.156.156,0,0,1,.035-.106c-.071,0-.142-.043-.177,0m-.178.149v-.021c.035-.022.142,0,.071-.043,0-.042-.036-.085-.107-.085.107.085-.071.064-.142.106.071.127.391.064.178.043m-.818.148c-.035-.042-.107-.084-.178-.148,0,.042-.071.106.036.106.071,0,.071.063.142.042m3.236.021c.035-.042.035-.063-.071-.063.142-.106-.107-.064-.142,0,.107-.022.142.021.213.063m-3.485.128c.107-.042-.071,0-.035-.064-.071-.127-.25.064.035.064m1.245.319c0-.064.177-.043.142-.106-.036-.043-.107,0-.142.021-.072-.085,0-.085.106-.085-.071-.042-.249-.064-.213,0,.035.021.035.085.107.085-.036.021-.072.106,0,.085m-.5-.149c.142.021.142-.021.213.085,0-.064,0-.064.071-.064.178-.127-.213-.063-.284-.021m-8.249.149c.142-.064.284-.085.355-.17-.106.021-.391.085-.355.17m-6.72.233c.319,0-.214-.084-.321,0,.142.043.178-.042.321,0m.995.171c-.071-.022-.142-.085-.249-.064.036.042.214.17.249.064m14.223.254c.177-.021.426-.042.142-.106,0-.021.035-.021.035-.021-.142-.021-.213.021-.177.127M56.154,75.6c.142-.021.321,0,.391-.064-.106,0-.391,0-.391.064m-4.231.128c.178-.064.107-.107,0-.128-.036.043,0,.085,0,.128m1.066.148c.107,0,.036-.021,0-.064-.107,0-.141.128,0,.064m-2.276.234c0-.064-.035-.213-.177-.191-.106,0-.106,0-.036.042,0,.043.036.064.107.064,0-.021-.035-.043-.071-.043.142,0,.177.107,0,.086-.036.063.142.063.177.042m.641.043c-.249-.064-.32-.064-.356-.043.143.021.249.085.356.043m9.209.318c.071-.063-.141-.106-.213-.106-.107.021-.32.106-.178.17.071-.043.142,0,.214,0a.154.154,0,0,0,.177-.064m-6.258-.021c-.071-.021-.178-.021-.178-.085-.178.17.284.17.178.085m17.388.276c.142,0,.142-.043.142-.106l.035-.021c-.106-.021-.249.084-.213.148.036.022.036-.021.036-.021m-19.13.3c.142.085.107-.043.249-.043v-.021c-.036,0-.142-.064-.142.021-.036-.021-.036-.042-.072-.042-.035.021.036.063-.035.085a.145.145,0,0,0-.214-.043c0,.043.143-.021.107.043,0,.021.071.021.107,0m5.3-.043c-.214,0-.072.17-.249.212-.107.043.071.043-.143.085.071.064.356-.021.178-.042.178-.064.107.128.392,0-.036-.021-.107,0-.178-.021.071-.064.142-.022.178-.106-.178,0-.25-.022-.036-.064-.071-.021-.178,0-.142-.064m12.089.106a.061.061,0,0,1-.035-.063c-.107.042-.036.106.035.127.071,0,.107-.106,0-.064m-18.525.319c0,.021.142-.042.142-.064.036,0,.036-.106.107-.085.106.043.213.021.284.064.107-.021.356-.149.356-.043-.036.064.107,0,.178.022.178.085.32-.128.462,0,.071-.085-.178-.107-.213-.043a.25.25,0,0,1-.214.021s0-.021.036-.021c-.142-.042-.392-.021-.428-.148-.034.021-.07.042,0,.063a.319.319,0,0,1-.248.064c0-.085-.391-.043-.356.021-.106.043,0-.085-.106-.085a.066.066,0,0,0,0,.106c.142.022-.036.086,0,.128m20.125-.064c.071.064-.035.149.143.043,0,.021.071.085.071.021.071-.064.106-.064,0-.085v.021c-.071,0-.071-.042-.143-.064s-.178.022-.071.064m-1.138-.064c-.355,0,.214.086.32.064,0-.085-.249-.021-.32-.064m-20.231.149v-.106c-.143.021-.108.128-.25.128.107.064.142-.064.25-.022m20.942.043c-.035-.021-.035-.043-.07-.043-.107-.021-.143-.17-.214-.042a.371.371,0,0,0,.143.042c.035.022.106.086.141.043m-19.307.489c.107-.085.285.021.427,0-.142-.043-.249-.085-.356-.107.107-.021.107-.085,0-.085.036.064-.071.064-.142.085v-.021c-.035-.021-.071-.021-.107-.043.214-.085.072.086.249-.085a.09.09,0,0,1-.071.022c.107-.171.249-.149.462-.149-.035-.042-.177-.022-.143-.085,0-.064.179,0,.179-.085-.071-.021-.143.043-.143-.021-.141.128-.284-.021-.319.042-.107.086-.249.064-.249-.042-.036.042,0,.085-.072.106a.092.092,0,0,0-.071.022c.036-.064-.141-.107-.141-.064-.107.127.177.169.212.042.143.022-.035.106-.106.127-.036-.021-.071,0-.071.022-.035.063-.107.042-.178.063.391-.021.178.171.427.128-.036.085-.249.064-.356.085.178.064.533-.128.463.064.035.042.07,0,.106-.021M70.2,77.514c-.035-.043-.142-.043-.213-.064-.036.064-.107.169.071.191,0-.086.214-.043.249-.106,0-.043-.071-.021-.107-.021M56.012,77.45c-.107.021-.107.085-.213.085-.072.042-.072.106.071.084,0-.021-.036-.021-.036-.042l.178-.042c-.036-.021-.036-.043,0-.085m15.609.064s-.142-.022-.035.021c.107,0,.107.063.214.084.07,0,.035-.105-.072-.105.072-.064-.035-.043-.107,0m-21.654.467.178.042c-.036-.021-.036-.042-.036-.042.036-.021.072.063.143.021.035,0,.035-.021,0-.021,0-.021.035-.042.071-.064-.071,0-.107.043-.178.022.071-.043.213-.043.249-.107-.178.021-.321,0-.213-.106.106.085.177.085.249,0-.463-.022-.072-.191.177-.171.142,0,.106-.02.071-.063a3.524,3.524,0,0,1-.569.063c-.071.086,0,.064,0,.149,0,.022-.036.043-.036.022-.035,0-.213.021-.213.042a.456.456,0,0,0,.249.043l-.071.064c-.142.042.178.064-.071.106m21.654-.34c-.106.042-.284-.106-.32.021.036.064.072-.064.107,0a.335.335,0,0,1,.142.021c.036,0,.178-.042.071-.042M48.047,77.7c0-.085.071,0,.143-.021,0-.042-.143-.064-.179-.064-.035.043-.035.128.036.085m11.165.022c0-.043.071-.043.107-.043.426-.064-.25-.085-.107.043m8.249-.043v-.042c-.177.063-.107.17,0,.234.142-.022-.036-.086-.071-.107.035-.042.142-.021.178-.064,0-.042-.072-.021-.107-.021m-16.748.085c.071,0,.143.021.214.021.036-.085-.178-.063-.285-.042-.035-.085.178-.064-.142-.085.036.064.107.127-.07.127-.036.107.212.022.283-.021m1.708.043a.185.185,0,0,1,.106-.022c-.035-.063-.249,0-.213-.085-.143-.063-.249.064-.107.107.107,0,.107.106.249.064.071.021.071-.022,0-.022s-.035-.042-.035-.042M70.2,77.768c0,.043.072.064.142.107-.035-.128-.035-.128.106-.149-.176-.085-.106.106-.248.042m-22.188.085c-.106-.042-.071-.234-.213-.106.071.021.107.106.213.106m8.072-.127a.577.577,0,0,1-.569.339,2.089,2.089,0,0,1,.249.064c-.036-.085.071-.064.142-.106.107-.084.284-.191.178-.3m-4.658.106c-.036-.043-.213-.128-.249-.064a.324.324,0,0,0,.249.064m-1.778.064c.072,0,.143-.021.036-.085.071,0,.177.042.213,0-.427-.128-.142.021-.249.085m3.663-.021c.071.021.106.042.177,0a.1.1,0,0,0-.177,0m-1.6-.022h0Zm4.479.128c.072.084.036.106-.106.127-.036.021-.071,0-.071-.021l-.072.064c-.035-.022,0-.043,0-.064-.106.085-.391.106-.07.149.07,0,.07,0,.106-.043.142-.106.071.085.107.128.213-.021-.036-.107.106-.17.179-.043.214-.107,0-.17m-6.827.148c.107-.042.428.043.357-.042.177-.043.284.042.39.021-.036-.043-.178-.043-.142-.085-.036-.042-.213-.063-.177.021a.171.171,0,0,0-.178.021c-.072.043-.214,0-.25.064M66.074,78c.036.127-.178,0-.249.063,0,0-.07-.021-.07-.042.07.128.676.106.319-.021m-15.361.191c-.035-.085-.248-.085-.071-.17.036.17.285.085.392.021.071.021.355-.084.249,0,.071.021.142.085.036.064-.143.043-.072.085-.285.043l.071-.043c-.107-.021-.285.043-.142.085a.823.823,0,0,1,.32.043c-.107.064-.142-.022-.285,0-.035,0,0,.064.036.042,0-.021,0-.021.036-.021.035.043.035.106-.072.064-.568.148-.746-.213-.285-.128m1.53-.106h-.036c-.036-.022-.072.021-.106.021.034.043,0,.043-.071.043.035-.107-.143,0-.214.021.142.042.178.064.214-.021.1.085.391,0,.284-.086-.036-.021-.036-.021-.071.022m5.226.042c.107,0,.214-.021.32-.021-.035-.064-.249-.043-.32.021m5.263-.021a.224.224,0,0,1,.107.043c.142-.064,0-.107-.107-.043m-7.858.021c-.107.064-.142,0-.213-.021,0,.106.249.213.213.021m2.062.022c-.035.021-.107,0-.107.042a.445.445,0,0,1,.249.043c.107-.128-.177-.149-.142-.085m8.463.085.071.042c.036-.085.142-.085.249-.149-.107-.021-.213.064-.32.107m.569-.107c-.107.128.142.043.249.107,0-.043,0-.043.071-.022.071.043.213-.042.178.064.284-.127-.214-.127-.356-.127-.071,0-.107.063-.142-.022m-16.143.107c-.071-.043,0-.022.035-.043.071-.042.213.021.285-.042a1.317,1.317,0,0,0-.5.042.14.14,0,0,0,.178.043m17.067.042c-.142-.021-.107-.064-.036-.127-.213-.043-.142.234.036.127m-15.147-.085c-.035-.021-.071-.021-.071,0,0,.064-.107.021-.143.085.143.107.143-.021.214-.085m5.369.064a1.911,1.911,0,0,0,.391.064c-.036-.107-.249-.085-.391-.064" fill="#222"/>
        <path id="Path_3" data-name="Path 3" d="M37.1,80.825c0-1.276,0-2.872,0-4.559-.007,1.548-.014,3.407,0,4.559" fill="#222"/>
        <path id="Path_4" data-name="Path 4" d="M37.106,74.463c0,.605,0,1.21,0,1.8,0-.048,0-.1,0-.141q0-.834,0-1.662" fill="#222"/>
        <path id="Path_5" data-name="Path 5" d="M37.106,74.463c0-.473,0-.947,0-1.416,0,.469,0,.942,0,1.416" fill="#222"/>
        <path id="Path_6" data-name="Path 6" d="M37.108,81.243c0-.125-.005-.265-.007-.418,0,1.054,0,1.89,0,2.377,0-.253.007-.49.013-.7-.015-.406-.011-.846-.007-1.257" fill="#222"/>
        <path id="Path_7" data-name="Path 7" d="M37.712,59.428q0-.041,0-.075l0,.075" fill="#222"/>
        <path id="Path_8" data-name="Path 8" d="M37.107,72.85v0Z" fill="#222"/>
        <path id="Path_9" data-name="Path 9" d="M98.367,50.631c-.083-3.745.072-9.2-.048-12.325a4.078,4.078,0,0,0,0-.937c.084-.468,0-6.085-.083-4.526a8.46,8.46,0,0,0-.114-1.4c.094-.007.153-.017.082-.045h-.092c-.008-.028-.015-.053-.023-.073.066-.068-.1-.2.028-.257.262-.25-.781-.478-2.867-.455-.087,0-.261,0-.261.023a10.115,10.115,0,0,0-1.216-.023c-.261-.011-.261.023-.174.046-.957-.091-2.695-.023-4-.046-4.346-.011-8.6.012-12.95,0a.865.865,0,0,0,.174.023c-9.473-.08-19.12.023-28.681-.034-2.086.08-5.127-.068-6.865.045a1.368,1.368,0,0,0-.522,0,16.589,16.589,0,0,0-2.022-.008.194.194,0,0,0-.083,0c-.479.021-.759.052-.416.084-.2.009-.357.024-.482.041a.042.042,0,0,0-.048.007c-.4.063-.409.162-.336.258a1.592,1.592,0,0,0-.087.446c-.028.027-.043.053-.006.071-.017.209-.03.492-.035.877a40.851,40.851,0,0,0-.108,5.17c-.036.47-.06,3.759-.024,3.915.012.314-.012.784.012,1.251v.157c-.036.156,0,.47-.024.783-.024,1.255.108.784.156.941.048,0-.012,1.1.036.941s.023.157.023.157a7.4,7.4,0,0,0,.025.937c-.008.483.007.608.026.523,0-.046.006-.094.009-.152l.008.021c.006-.063.012-.143.017-.236a3.253,3.253,0,0,1-.048.941c.011.314.011.784-.024.314a9.7,9.7,0,0,1-.048,1.407c-.036-.157-.084,0-.084-.623a5.253,5.253,0,0,1-.048.623,13.756,13.756,0,0,1,0-1.407,16.217,16.217,0,0,0-.036,2.191,22.716,22.716,0,0,0,.036,2.661c-.036.471-.012.941-.036,1.568a.344.344,0,0,0,.017.106c0-.035,0-.081,0-.143,0-.018.012-.026.021-.029a5.112,5.112,0,0,1,.044-.912c.008-.071.016.026.027.165a1.244,1.244,0,0,1,.034.354l.006.041-.005-.005c0,.065,0,.13.005.192v0h0v.07l-.01-.049a.57.57,0,0,0,0,.169c.012.381.024.476.071.286-.035.571-.071.476-.1,0a.534.534,0,0,0-.018-.11,4.257,4.257,0,0,1-.042.645c-.012-.157,0-.314-.012-.47a6.686,6.686,0,0,0,.048,1.859v-.211c.024,0,.012.19.024.286.029-.078.027.414-.014.443-.01.1-.026.15-.044.1a3.871,3.871,0,0,1-.038.979c.011-.265.012-.778.032-1a1.989,1.989,0,0,1-.032-.265,4.278,4.278,0,0,0,0-.784c-.048-.157-.012,1.568-.012,1.881-.012.784.084.627.048,1.878,0-.314-.012-.627-.024-.157,0,.314.024.47,0,.784a12.851,12.851,0,0,1,.012,1.568c.036.156.036-.628.06-.628-.024,1.408.036.157.072.938,0,.313-.048.47-.048,0-.1,2.351-.048,0-.108.94-.031.416-.026,3.027-.016,4.28,0,1.745-.011,3.468,0,5.13,0-1.231,0-2.428,0-3.507,0,1.135,0,2.311,0,3.509l0,.446c.036-.313.132-.47.084.314,0-.157-.012-.784-.036-.314,0,.627-.048-.157-.048.471,0,.381,0,1.284-.005,2.355,0,1.578,0,3.16.005,4.7,0,.133,0,.275,0,.419a3.334,3.334,0,0,0,.038.671c-.014.158-.024.359-.031.587,0,.122.01.243.019.357.012.471-.024.314-.024,0,0,1.027-.006,1.024-.007.344-.009,1.043.013,2.354.008,3.3a.3.3,0,0,0,0,.146c.022,1.251-.048,2.95.023,4.038a11.183,11.183,0,0,0-.012,1.254c.06.627.084-.94.024-1.1-.012-.784.06,0,.072.157-.024.47.012.627.012.94-.024,0-.024-.157-.036-.313.024.784-.072.627-.024,1.407a3.12,3.12,0,0,1-.048-.78c-.036.313.012.78-.012.937-.036,1.254.024,2.665-.012,3.915.048-.156,0,.784.036,1.1-.036,1.1-.024,2.661.024,3.445.036-.627.072.314.108,0a1.014,1.014,0,0,1,.021.148c-.021.02-.055.044-.076.067-.006-.059-.012-.128-.017-.215,0,.157,0,.314-.012.471-.036-.784-.012.78.024.627.017-.169.028-.135.038-.024-.123.155-.033.318.029.478.008.1.017.169.029.169a.229.229,0,0,0,.013.048.234.234,0,0,1-.007.045s0-.009.059-.011l0,.041c-.051.053-.144.12.017.163.007.036.015.056.024.062-.327.065-.029.192-.1.278.087.1-.087.262.869.284a13.328,13.328,0,0,0,2.873.1c.262.034,2.089.057,2.176.022.175-.011.436.012.7-.011h.087a3.958,3.958,0,0,0,.435.023c.7.023.436-.1.523-.148,0-.046.609.011.522-.034s.087-.023.087-.023a2.382,2.382,0,0,0,.521-.022c.269.007.339-.008.291-.026l-.085-.009.016-.006c-.036-.006-.081-.011-.134-.016a1.06,1.06,0,0,1,.522.045c.174-.011.436-.011.174.023.262.022.783-.023.783.045-.088.034,0,.08-.347.08a1.791,1.791,0,0,1,.347.045,4.45,4.45,0,0,1-.783,0,5.284,5.284,0,0,0,1.218.034c.349-.011,1.654.057,1.479-.034.261.034.523.012.871.034.041-.006.057-.012.058-.016-.019,0-.044,0-.078,0a.025.025,0,0,1-.015-.02c-.195-.012-.606-.012-.507-.041-.041-.008.013-.016.092-.026-.009-.013.085-.025.195-.032l.023-.006,0,0,.108,0h.041l-.027.009a.2.2,0,0,0,.094,0c.212-.011.264-.022.159-.068.318.034.264.068,0,.091a.162.162,0,0,0-.061.017,1.386,1.386,0,0,1,.358.04c-.087.011-.174,0-.261.011.951.113.442-.021,1.034-.045H51.54c0-.023.1-.011.158-.023-.043-.028.231-.025.247.014.054.009.083.024.055.041a1.293,1.293,0,0,1,.545.036c-.148-.011-.433-.012-.556-.03a.691.691,0,0,1-.148.03,1.38,1.38,0,0,0-.435,0,7.218,7.218,0,0,0,1.045.011c.436.012.349-.079,1.044-.045-.174,0-.349.011-.087.023a2.747,2.747,0,0,1,.435,0,4.247,4.247,0,0,1,.871-.012c.087-.034-.348-.034-.348-.056.782.022.087-.035.521-.069.174,0,.261.046,0,.046,1.307.091,0,.045.522.1.262.034,2.089.023,2.612.011,2.176,0,4.7.012,7.049,0a9.48,9.48,0,0,0,1.131-.022c.261-.012.174.022,0,.022,3.308.023,7.658-.011,10.618,0,1.479,0,2.959.023,4.351,0-.175-.034-.262-.125.174-.079-.087,0-.436.011-.174.034.348,0-.087.045.261.045.7-.011,4.526.057,4.526-.034.521.08,1.828.023,2.61.034.7-.022,1.653.046,2.263-.022a3.688,3.688,0,0,0,.7.011c.349-.057-.523-.079-.61-.023-.435.012,0-.056.087-.068a3.619,3.619,0,0,0,.523-.011c0,.023-.087.023-.174.034.436-.023.349.068.782.023-.087.034-.087.034-.433.045.174.034.433-.011.52.011.7.035,1.481-.022,2.176.012-.087-.046.436,0,.61-.034a15.024,15.024,0,0,0,1.915-.023c-.349-.034.174-.068,0-.1.174-.068.435.022,0,.068a2.072,2.072,0,0,1,.261.011c-.435.034.433.012.349-.022-.262-.046.346-.046.346-.092.175-.056-.434-.045-.521-.022-.348.045-.784-.046-1.219,0,.261-.057.958-.011,1.306-.046.521.035.7-.011.609-.068-.079-.041.195-.174-.071-.174a.336.336,0,0,0,.093-.172.687.687,0,0,0,.114-.593,36.988,36.988,0,0,0,.165-4.443,2.157,2.157,0,0,0-.024-.468c.06-.469.012-1.406.024-2.184.012-.469-.024-.469-.048-.312.1-1.719.024-4.838.048-7.178.012-7.8-.012-15.449,0-23.247a2.73,2.73,0,0,0-.024.312c.084-17.007-.024,2.17.036-14.993M37.242,59.047c0-.286-.012-.571-.012-.857a3.454,3.454,0,0,1,.012.857M95.5,55.2c-.012,0-.024,0-.036.094.024.285-.036.19-.036,0s.048-.379.072-.094m-.143-12.816c.011-.095.047-.095.06,0,0,.284-.072,0-.049.284a3.529,3.529,0,0,1,.012.95,3.433,3.433,0,0,0,.037.662c.011-.188.023-.093.035,0a6.116,6.116,0,0,0-.084,1.139c0-.095-.011-.095-.011-.095a3.1,3.1,0,0,0,.011.57c.036.1.024.757-.023.567.072-.377-.048-.757,0-1.232.012-.19-.025-.569.012-.474a4.4,4.4,0,0,0-.024-.948c.024-.189.012-.474.035-.759.012-.19-.048-.19-.048-.285a2.21,2.21,0,0,1-.036-.379c.025-.095.061.379.073,0m-.037,15c-.011-.285.037-1.8.037-.855a7.382,7.382,0,0,1-.037.855m-.047-13.858a8.111,8.111,0,0,0,.024.852c-.037,0,0,.19-.013.38-.047,0-.011-.475-.047-.475-.036-.093-.024.285-.048.38a4.314,4.314,0,0,0-.084-1.232,1.011,1.011,0,0,0,.012.19c-.1-.475,0-.1-.048-.665-.012.1-.012.19-.024.285h-.012c.012.19.012.474.048.38,0,.285-.036.285-.048,0-.012.285-.035.569-.06.947-.012-.378.048-.853,0-1.137a.782.782,0,0,1-.012-.285c.108.19,0-.759.037-1.232a6.467,6.467,0,0,0,.047.947c-.024-.662.084-.1.072-1.137a2.385,2.385,0,0,0,.036.475.347.347,0,0,1,.012.188c.012.189.06.664.072.284-.072-.095-.048-.852.023-.567.024,0,0,.472-.035.377a1.011,1.011,0,0,1,.012.19c.012.19.036.1.06.19-.06,0-.072.38-.024.665m-.06,12.721c-.036-.095-.012-.665-.06-.665.012-.474.072-.285.107-.19a5.7,5.7,0,0,1-.035.57c0,.1.012.285-.012.285m-.06,3.508c0,.285-.024-.095-.024-.19.012-.19.012-.19.012-.38.036-.094-.036-.19,0-.285.072.1-.012.57.012.855m.06-5.135-.024-.473c-.012,0-.012.1-.024.1-.012-.38.024-.38.048-.19,0,.285.036.285.047.568-.023-.1-.035-.1-.047,0m-.108,2c-.012-.377-.012-.377-.084-.284a1.445,1.445,0,0,1,.06-.378c-.036.378.072.19.024.662m.012-11.866c-.048-.1-.012.474-.048.569a2.264,2.264,0,0,0-.012-.285s-.024-.094-.024.095-.024.19-.012,0a5.2,5.2,0,0,1,.036-.664c.024-.378.1-.1.06.285m-.048-3.7c0-.189.012-.379.012-.569-.024-.19-.072-.852-.012-.757,0,.475.036.285.072.189-.012.853,0,.286-.048.378.012.285.024.855-.024.759m-.024,1.328a3.556,3.556,0,0,1,.036-.663,2.464,2.464,0,0,1-.036.663m.215-3.983c0,.38.06.284.073.664h-.06c.024-.284-.048-.38-.013-.664m-.2-.1a4.415,4.415,0,0,1,0-.568c-.036.285-.048.1-.048-.094.036.284.12-.475.048.662m-.036.379.036.19a5.322,5.322,0,0,1,.024-.664c.012,0,.024.474.024.57-.012,0,0,.094.012.094.048,0,.036-.19.084,0,.012.57.012,1.14.036,1.517-.024.095-.036.19-.036-.187.012-.665-.084-1.709-.1-.475a1.536,1.536,0,0,1,0-.665c-.06-.284-.072.095-.06.57-.036-.1-.036-.475-.059-.665-.013.19.012.285.012.475a.6.6,0,0,0-.037-.19c0,.1-.011.1-.011,0a3.156,3.156,0,0,1,.011-.38s-.011,0-.023.1l.023-.474c.025.664.037-.19.06.189m-.107-1.137a1.927,1.927,0,0,1,.012.475c.047-.095.035.378.012.473-.024-.1-.024.285-.048.379-.012-.284.036-.569.012-1.042a7.181,7.181,0,0,1-.024-.949c.036.1.012.475.036.664m-.06,5.88c.012.19.072.664.012.569,0,.19,0,.283.024.19a2.218,2.218,0,0,1,.012.283v.1a.343.343,0,0,1,.012.19c-.048.284-.1-.475-.048-.758-.048-.094-.036-.19-.012-.569m-.012-5.784c.012.474.048.852.024,1.326-.036-.189,0-.569-.024-.759-.012-.093,0-.283-.024-.093a1.4,1.4,0,0,1,.024-.474m0,5.4a.437.437,0,0,1,0,.19.945.945,0,0,1-.048-.57c.036.1.012.38.048.38M73.872,31.924c.158,0,.158.012.1.035a.847.847,0,0,0-.316-.035c.052-.033.422-.056.211,0m.052,1.182-.052.011c0,.035,0,.057-.211.057,0,0,0,.023-.053.012-.053-.034.158-.091.316-.08m-.105.545a3.1,3.1,0,0,0-.317-.045c-.159-.023.053-.011.053-.011.106-.023.264-.035.158,0,.159,0,.211.056.106.056m-.264-.181a1.425,1.425,0,0,0,.211.034v-.012c.158.012.106.012,0,.046,0,.034-.1,0-.1-.012-.265.057-.106.012-.212-.022-.158-.023,0-.046.106-.034m0,.193c.158,0-.053.022-.106.022a1.363,1.363,0,0,0-.211-.011c-.053-.034-.106.034-.159,0,.053-.068.317.011.476-.011m-.688-2.806c.054-.011.159-.034.159,0,0,.011.159.045-.053.022-.263.057-.368-.033-.106-.022m-.052,2.715a.445.445,0,0,1-.21-.023,1.262,1.262,0,0,1-.212-.023c.106-.068.158.012.317.023a.337.337,0,0,1,.105.023m-.581-2.67c.159.034.159-.034.265-.011-.265.09.158.09-.318.09.106-.045.106-.022.053-.079m-.581,2.886c-.105-.023-.211-.034-.211-.057.211.034.106-.068.369-.023-.21.012-.21.012-.158.08m0-1.92c-.369-.069-.052-.125.317-.091-.686,0-.265.079-.159.057.053-.012.106,0,.053.011-.263.046-.792.057-1.162.091.106-.034.688-.045.951-.068m-1-.08a.993.993,0,0,1,.264,0c-.053.023-.053.046-.053.057-.105-.011-.317-.023-.211-.057m.37-.227V31.5c.318-.023.106.091,0,.057m.423.091c.106-.011.159-.034.263-.045,0,.022,0,.045.159.034,0-.023-.106-.034-.053-.046.159.046,0,.034.318.034-.318.023-.159.068-.212.114-.053-.034-.053-.08-.212-.046-.21-.011-.21.046-.315.046,0-.034.263-.057.263-.091Zm.633-.693a.441.441,0,0,1-.264-.046c.159,0,.423,0,.212.023,0,.011.052.011.052.023m-1.056,2.374c0,.012,0,.023.053.034.159-.022.106.035,0,.035s-.212-.046-.053-.069m.106.227a1.983,1.983,0,0,1,.317.035c.053,0,.159-.012.159.011-.053.034-.37.011-.37.057-.265-.012-.159-.068-.106-.1m.633-.09c.106.022.476-.012.476.034-.159.011-1-.034-.476-.034m.371-2.636c0,.023-.159.045-.265.034a.387.387,0,0,1,.265-.034m-.581.079c0-.045.053-.056.263-.034a.468.468,0,0,1-.316.034Zm-.9.534c.211-.011-.053-.067.211-.045.053-.022.053-.034.212-.022a1,1,0,0,1,.318-.012c-.477.023.052.057.263.057-.211.034-.316.022-.316.079-.159-.023-.477-.091-.424-.012-.053,0-.053.035-.105.012-.106-.012-.316-.034-.159-.057m.159.659c-.159,0-.265,0-.159.046a.445.445,0,0,1,.211-.011c.053.033-.211.022-.211.056-.106.012-.053-.034,0-.045-.106,0-.106-.034-.157-.046-.053-.034.21-.022.316,0m-.475-.318c.106,0,.159.023.159.046.1.022-.053.011-.106.022v.012c.316.011-.159.045-.265-.023.106-.023.371-.011.212-.057m0,.341c-.106,0-.106,0-.106.034-.106-.057-.106-.034-.317-.045.106-.023.686-.057.423.011m.21.352s-.051,0-.051.011c.421.035.051.046-.212.057-.053-.057.053-.079.263-.068m-.051-.954a1.978,1.978,0,0,1-.635-.1c.212.011.635,0,.686.067-.263-.045-.21,0-.051.035m-.529-.75a.484.484,0,0,1-.318.011,1.539,1.539,0,0,1,.318-.011m-.476.761c.212-.034.317.08.158.057.054-.034-.1-.011-.211-.023.053-.011.053-.023.053-.034m-.58.33c.105.034.211.056.264.079-.106.012-.106-.023-.212-.023-.158,0-.052-.033-.052-.056m-.159.125c-.053.034.211.011.053.034-.423,0-.159-.1-.053-.034m-.476-.762c.106-.011.052.012.106.023-.054.023-.211-.011-.211.034-.053,0-.053-.011-.053-.011-.052-.023.053-.046-.106-.046a.71.71,0,0,1,.264,0m-.9,2.432v.022c.053,0,.159-.011.159.012-.053.023-.212.011-.265.034.053.011.318.045.106.057-.158-.034-.263-.091,0-.125M66.9,31.152c.421,0,.421.091,0,.034.1-.011.053-.011,0-.034m-.424,2.783c-.1.035-.158.057.053.069-.264.057-.37-.091-.053-.069M65.9,34c.053-.057-.159-.012-.264-.034s-.106-.012-.106.011c-.159-.034-.529.011-.37-.057.052.046.105.011.211.011.211,0,.951,0,.529.069m-.952-.114c.106-.034.423.034.37-.034.5.065-.28.078-.451.021.03.007.081.013.081.013m-.157.034a1.35,1.35,0,0,0-.37.08l-.106-.023a2.276,2.276,0,0,1,.476-.057m-2.009-2.579c-.053-.045-.053-.079-.1-.114.158.012.211.092.1.114m-.21-.557a.56.56,0,0,1-.317-.022,1.3,1.3,0,0,1,.317.022m-2.061,3.147a.791.791,0,0,0-.157-.022c.157-.034.369-.012.157.022m-2.324-1.829a3.129,3.129,0,0,1-.528.091c-.053-.045.37-.079.528-.091m-1.373.875c.106,0,.422.023.317.057a.466.466,0,0,1-.264.034,1.461,1.461,0,0,0-.317,0c-.212-.034.106-.08.264-.091m-1.532.7c-.053,0-.159,0-.159.023-.211-.068.792-.057.159-.023m-2.536-.261c.264-.022.053-.114.37-.114-.052.035.106.023.212.035-.318.022-.212.034.053.034-.053.045-.159.023-.265.056.106.012.212,0,.265.012-.424.068-.317-.034-.582,0,.265.011-.159.057-.265.023.318-.023.053-.023.212-.046m.264.489c-.158,0-.317.011-.476.011a1.136,1.136,0,0,1,.476-.011m-1.848-1.375a3.823,3.823,0,0,1-.582.034,2.524,2.524,0,0,1,.582-.034m-1.109,1.068a2.8,2.8,0,0,0,.316-.046c-.053.023-.053.035,0,.046l-.263.023c0,.011.053.011.053.022-.212.012-.212-.022-.106-.045m.422.1c.158.057-.106.114-.263.159-.106.023-.265.012-.212.057-.159-.023-.264-.023-.37-.034a1.4,1.4,0,0,0,.845-.182m-1.321-1.3c-.052.057-.316-.011-.369-.034a1.691,1.691,0,0,1,.369.034m-.475,1.511c.053.1-.317.046-.317-.011a.714.714,0,0,0,.317.011m-.739-2.317a2.134,2.134,0,0,1-.476-.012,2.071,2.071,0,0,1,.476.012m-.37,1.374c0,.034.159.034.265.046.157.045-.53.045-.265-.046m-.37-.659c.159-.045.95,0,.476,0-.212-.022-.265.023-.476,0m.264-1.647c0,.012.053.034,0,.045-.1-.011-.159.023-.317.023a1.585,1.585,0,0,1,.317-.068m-1.585,2.01c.053.023.159.035,0,.035-.21.034-.159-.035,0-.035m-.053.8c-.21-.068-.422.045-.686,0-.106-.011-.317.023-.265-.011,0-.057-.369.011-.527.022-.106-.022-.265-.011-.423-.034-.106-.011-.106.046-.159.046a.705.705,0,0,1-.211.034c-.053-.023.211-.057,0-.068-.053-.012-.053-.046,0-.057.158,0,0,.068.158.045a1.174,1.174,0,0,1,.529-.011,1.2,1.2,0,0,0,.369-.034c-.1-.011-.052-.023,0-.034.053.068.423.056.635.079-.053,0-.053.012-.053.012a.994.994,0,0,0,.317-.012c.053-.034.422-.023.316.023m-.739.3c.106,0,.106.023,0,.012-.212.022-.212-.034-.37-.034-.211-.023-.053-.091.158-.057-.052.045.265.011.318.045a.71.71,0,0,0-.159.012s-.053.022.053.022m-1.109.069c.1-.1-.423,0-.686-.035a2.141,2.141,0,0,0,.527-.045c-.369.023-.053-.08-.633-.068a.815.815,0,0,0,.264-.034c0-.012.052-.023.1-.012.1-.011.37-.056.158-.068-.053.068-.474.046-.316-.023,0-.022.263,0,.211.035a.312.312,0,0,1,.1-.012c.106-.011.053-.034.106-.057,0,.057.211.069.37.023.053-.034.264.046.475-.023,0,.034.106,0,.211.012,0,.045-.264.011-.264.045-.052.034.159.023.212.046a1.454,1.454,0,0,0-.687.079.348.348,0,0,0,.106-.011c-.264.091-.053,0-.37.045.053.012.106.012.158.023v.011c.106-.011.265-.011.212-.045.158,0,.158.034,0,.045.158.012.317.034.528.057a4.051,4.051,0,0,0-.634,0,.254.254,0,0,1-.158.012m.052.113c-.1.034-.1.1-.317.046.053-.034.212-.012.212-.046,0-.011.053-.011.1,0m-.844-.227a.817.817,0,0,1,.369.034,1.181,1.181,0,0,1-.369-.034m-.265-.886a2.4,2.4,0,0,1,.529.023,3.039,3.039,0,0,1-.529-.023m1.532,1.09c.106,0,.158,0,.106-.022a.76.76,0,0,1,.158-.012h.053a.12.12,0,0,1,.1-.011c.159.045-.264.091-.422.045-.053.046-.1.035-.317.012.106-.012.37-.068.317-.012m-.158-1.363c.158.012.264.034,0,.068,0-.022-.053-.045,0-.068m.211-1c.1,0,.264-.011.264.012.159.09-.37.023-.264-.012m.793,1.716a.365.365,0,0,1,.105.022c0-.045.159-.011.212-.011v.011c-.212,0-.159.069-.37.023a.334.334,0,0,1-.159,0c.053-.034-.158,0-.158-.023a.478.478,0,0,1,.317.023c.1-.011,0-.034.053-.045m.264-1.988c.21.011-.159.068-.317.068.1-.034-.317-.045-.053-.045a.661.661,0,0,0,.37-.023m-1.8-.58c-.053-.022-.053-.022.053-.022.159.011.264-.011.423-.011a2.743,2.743,0,0,0,.528-.012.505.505,0,0,1,.317,0c.212.079-.528.023-.634.068a2.075,2.075,0,0,1-.634.045c-.106.012-.053.058-.106.08-.316-.011-.527.079-.845.091-.052-.046.265-.034.265-.08a1.053,1.053,0,0,1,.211-.011l-.158-.022a1.823,1.823,0,0,0,.474-.092c.106-.011.159-.023.106-.034m-.845,0c.106.023.318-.011.318.011s0,.035-.106.012a.589.589,0,0,1-.317-.012c.052,0,.052-.011.1-.011m-.264.068c.106.023.264.012.37.035a.756.756,0,0,1,.159-.035c.158.058-.212.046-.37.069.052-.011.052-.023.052-.034-.158.011-.264.011-.211-.035m-.633,2.977a2.46,2.46,0,0,1-.371.057,2.112,2.112,0,0,0,.264-.012c-.052.012-.1.023-.1.035.053,0,.053.011,0,.011-.106.023-.159-.023-.212-.011,0,0,0,.011.053.022l-.264-.022c.37-.023-.106-.035.106-.057l.1-.034a1.8,1.8,0,0,1-.37-.023,2.255,2.255,0,0,1,.317-.023c0,.012.053,0,.053-.011,0-.046-.1-.034,0-.08.317-.011.635-.011.846-.034.052.023.1.034-.1.034-.37-.011-.952.08-.265.091a.508.508,0,0,1-.37,0c-.159.057.053.068.318.057m-.845.216a.469.469,0,0,1-.265-.023,5.535,5.535,0,0,1,.739-.023c-.106.035-.317,0-.423.023-.051.012-.157,0-.051.023m.981,50.77c.212,0,.054-.045-.052-.068.158,0,.369.057.264.09a.276.276,0,0,1-.158.023c-.106-.011-.054.012-.054.023-.1.011-.211.011-.159-.023l-.159.023c0-.034.053-.046.213-.046-.054-.022,0-.022.1-.022m-.159.2a1.391,1.391,0,0,0,.213.012,1.059,1.059,0,0,1,.423.011c-.212-.011-.742.045-.371.068.159,0,.159-.068.211.023A2.083,2.083,0,0,0,42,85.08a.772.772,0,0,1-.317.069,2,2,0,0,0-.584,0l-.381.057v-.08c.172-.009.382-.029.487-.023a.286.286,0,0,0,.212-.068c.106-.046.477-.012.637-.057-.054,0-.106-.011-.054-.023m1.642-.193c-.053-.022-.053-.022.053-.022.159.011.265-.012.424-.012a2.752,2.752,0,0,0,.529-.011.508.508,0,0,1,.318,0c.212.079-.529.023-.635.068a2.088,2.088,0,0,1-.636.045c-.106.012-.053.057-.106.08-.317-.011-.529.079-.847.091-.053-.046.265-.034.265-.08a1.06,1.06,0,0,1,.212-.011l-.159-.023a1.807,1.807,0,0,0,.476-.091c.106-.011.159-.023.106-.034m1.236,18.912a.477.477,0,0,1,.317.023c.107-.011,0-.034.053-.046a.366.366,0,0,1,.107.023c0-.045.158-.011.211-.011v.011c-.211,0-.159.068-.371.023a.36.36,0,0,1-.158,0c.053-.034-.159,0-.159-.023m.317-1.942c.107-.034-.317-.046-.052-.046a.643.643,0,0,0,.37-.022c.211.011-.158.068-.318.068m-.031-14.4a.031.031,0,0,1,.014-.006.181.181,0,0,1,.05.006Zm.135,0a.34.34,0,0,1,.136,0Zm-.174-1.926c.106-.034-.318-.045-.053-.045a.659.659,0,0,0,.372-.023c.21.011-.16.068-.319.068m-.881,17.526c.159.011.264.034,0,.068,0-.023-.053-.046,0-.068m-.072-16.254c0-.022-.053-.045,0-.068.159.012.265.034,0,.068m.212-1.068c.1,0,.264-.011.264.012.159.09-.37.022-.264-.012m.072,16.322c.1,0,.263-.011.263.011.159.091-.369.023-.263-.011M43,84.785a.593.593,0,0,1-.318-.012c.053,0,.053-.011.106-.011.106.023.318-.011.318.011s0,.035-.106.012m-.106.08a.756.756,0,0,1,.159-.035c.159.057-.213.046-.371.069.053-.012.053-.023.053-.034-.159.011-.266.011-.212-.035.106.023.265.012.371.035M42.1,86.819c.052,0,.106.011.106.022-.106,0-.159-.011-.159-.034-.106-.023-.106-.023.053-.023.21-.011.264.069.264.1-.054.011-.317.011-.264-.023.264.012.21-.045,0-.045m-1.217-1.33c.523-.045.523.034.087.057a.405.405,0,0,0-.174.023h-.085v-.044c.071-.014.131-.031.172-.037m.391,15.936a.291.291,0,0,0,.212-.068c.1-.046.476-.012.635-.057-.053,0-.106-.011-.053-.023a1.37,1.37,0,0,0,.212.012,1.036,1.036,0,0,1,.422.011c-.212-.011-.74.045-.37.068.158,0,.158-.068.211.023a1.964,1.964,0,0,0-.475.011.8.8,0,0,1-.318.068,2.026,2.026,0,0,0-.582,0c-.16.025-.338.05-.5.078l.005-.1c.179,0,.474-.033.6-.026m.9,1.715c.053,0,.106.012.106.023-.106,0-.159-.011-.159-.034-.106-.023-.106-.023.053-.023.211-.011.264.069.264.1-.053.011-.317.011-.264-.023.264.011.211-.046,0-.046m-1.323,1.023c.16-.034-.265-.114.37-.046a1.437,1.437,0,0,1-.317,0c.159.034.053.046-.053.046m.021-2.272c-.1,0-.172,0-.225.007l0-.033a2.219,2.219,0,0,0,.31-.054c.523-.045.523.034.087.057a.389.389,0,0,0-.174.023m-.295-53.41a4.6,4.6,0,0,1,.072.572c-.012,0-.036.095-.048,0,.012-.19-.024-.286-.024-.572m1.068,55.375v.057c-.159-.023-.212.045-.371.011.212,0,.159-.057.371-.068m-1-59.086c-.084.381-.024-.951-.072-1.142a6.334,6.334,0,0,1-.048-1.143c-.012-.191-.06-.1-.084-.191.012-.569-.083-.95-.1-1.522.048-.1.035.477.083.477a3.114,3.114,0,0,1,.012.381l.024-.286a5.342,5.342,0,0,0,.1.855c.012.191.024.286.036.191s.024-.1.024.1c-.012.286.012.476.012.762a8.383,8.383,0,0,0,.012.951,1.528,1.528,0,0,1,0,.572m-.1,30.935a3.839,3.839,0,0,1-.024.571,1.69,1.69,0,0,1,.024-.571m-.024-23.172a4.548,4.548,0,0,1,.012.572,1.468,1.468,0,0,1-.012-.572M40.4,55.866v.095c.047,0,.059.1.035.474a1.407,1.407,0,0,1-.035-.569m0,.569c0,.286,0,.763-.025.381-.011,0-.011.1-.023.1a1.288,1.288,0,0,1,.048-.477m.047.095a1.129,1.129,0,0,1,.036.477,1.4,1.4,0,0,1-.036-.477m-.036-20.9c0-.1.012-.1.012,0a2.486,2.486,0,0,1-.023.57c-.048-.095.035-.381.011-.57m.1.379a1.8,1.8,0,0,1-.012.762,5.666,5.666,0,0,1,.012-.762m.06-1.046c-.024.286-.036.1-.06.477-.036-.286.024-.667.06-.477M40.5,40.772c-.012-.286-.012-.476.036-.381-.024.191-.012.477-.036.667a2.329,2.329,0,0,1,.036.286c-.06.286-.048-.381-.072-.667.012.1.024.1.036.1m.1.667c-.024,0-.036,0-.012-.19a1.83,1.83,0,0,1,.012-.572c0,.1.012.1.012.191-.024.19.012.571-.012.571m0-1.334a.808.808,0,0,1-.024-.284c.012-.19-.012-.095-.024-.095-.012-.19-.012-.381.024-.286l-.024-.286c.036,0,.048.1.048.382.024-.1.024,0,.024.19,0,.379.047.095.072-.1,0,.284-.06.665-.1.474m-.044-8.539-.006-.076.04,0a1.15,1.15,0,0,0,.435-.046c.522-.045.522.034.087.057a.405.405,0,0,0-.174.023,1.032,1.032,0,0,0-.382.039M41.7,33.492v.057c-.159-.023-.211.046-.37.011.211,0,.159-.056.37-.068m-.792.307c.159-.034-.264-.114.369-.045a1.493,1.493,0,0,1-.316,0c.159.034.053.045-.053.045m-.052.091a.619.619,0,0,1,.264-.011c-.053-.046.21-.034.263-.012-.053.023.158.023.211.046-.158.011-.317-.034-.58-.012.074.032-.133.02-.319.017V33.9a.945.945,0,0,0,.161-.012m1.373-1.113c.053,0,.106.011.106.022-.106,0-.159-.011-.159-.034-.106-.023-.106-.023.053-.023.211-.011.263.069.263.1-.052.011-.316.011-.263-.023.263.012.211-.045,0-.045m-.159.965c.265,0,.159-.034.106-.068.475.011.159,0,.211.046.158-.012.475-.023.423.022-.106,0-.212-.011-.318-.011-.1.023-.474.068-.422.011m.106-3.011c-.053-.022,0-.022.106-.022.21,0,.053-.045-.053-.068.158,0,.369.057.263.09-.052.023-.052.023-.157.023s-.053.012-.053.023c-.106.011-.212.011-.159-.023l-.158.023c0-.034.053-.046.211-.046m-.846.33a.281.281,0,0,0,.211-.068c.106-.046.477-.012.635-.057-.053,0-.106-.011-.053-.023a1.37,1.37,0,0,0,.212.012,1.054,1.054,0,0,1,.422.011c-.212-.011-.739.045-.37.068.158,0,.158-.068.211.023a2.074,2.074,0,0,0-.475.011.776.776,0,0,1-.317.069,1.991,1.991,0,0,0-.582,0c-.23.035-.5.07-.712.117q-.008-.051-.015-.1c.016,0,.008-.006,0-.012l0-.01c.194,0-.11-.079.1-.068-.106.1.529.012.739.023m-.686-.238c0,.022-.131.011-.252,0a.053.053,0,0,0-.067-.006c-.042,0-.079-.006-.1-.006.053-.068.264-.023.423.012m-.46,3.381c.072,0,.072.858.024.477a2.594,2.594,0,0,0-.024-.477m.132.477a3.335,3.335,0,0,0-.06.667c-.048-.286.024-.763.06-.667m-.306-3.79a.448.448,0,0,1,.236.012l-.013.021a.714.714,0,0,0-.223-.022H40l0-.011h.011m-.081.357c0,.043,0,.089,0,.139l-.013,0v-.143h.015m.006,2.8c0,.037,0,.075,0,.11l0-.111h.006M39.93,31.51v.122h-.007l0-.121h.011m-.023-.7a.521.521,0,0,1-.055.008l-.008-.016c.017,0,.038.006.063.008m-.152,23.246a5.775,5.775,0,0,1,.108-1.143,6.484,6.484,0,0,1-.072,1.236c.048-.474,0-.378-.036-.093m-.113-23.3a.636.636,0,0,1,.073.014c0,.014,0,.029-.005.046-.082-.012-.13-.04-.068-.06m.04.781.026,0c0,.039,0,.079,0,.117l-.028,0h0c0-.046,0-.083,0-.116m0-.472-.048,0v-.026l.048.006v.025m0-.025.021,0v.023h-.019l0-.025m.011.2,0,.054-.041-.01-.005-.04a.233.233,0,0,1,.043,0m0,.087,0,.092h-.024a.375.375,0,0,0-.015-.1l.035,0m-.076,2.71v.119a9.717,9.717,0,0,1,.155,1.564c-.036.314.048.471.012.941a3.515,3.515,0,0,0,.048.784c.048.941-.036.941-.06.157a1.2,1.2,0,0,0-.024-.314,2.78,2.78,0,0,0-.06-.784c-.024-.313-.048-.627-.048-.937-.01-.528-.062-.947-.085-1.532l.061,0m.084,9.687a2.384,2.384,0,0,1-.012.474c-.1.286-.024-.665.012-.474m-.036,6.187a6.535,6.535,0,0,1,.012-.858,6.538,6.538,0,0,1-.012.858m-.191,4.906c-.024-.1-.048-.1-.06-.1.012-.19.024-.572.06-.381a3.081,3.081,0,0,1,0,.476m-.048-.76c-.024.189-.012-.095-.024-.19H39.4c-.012.569-.047-.286.024-.477.024.191.012.667.06.382,0,.19-.024.285-.048.285m-.12-2.379c-.012-.191.024-.191.024-.382,0-.286.036-.1.06-.1-.036.191-.06.381-.084.477m.166-20-.153.017c0-.024,0-.046-.005-.069.053-.014.1-.03.159-.045,0,.033,0,.067,0,.1m-.064-.611h.029l0,.027-.036,0,0-.024m-.022,0v.023a.758.758,0,0,0-.126.025l0-.027a.57.57,0,0,1,.13-.021m-.259,21.943c.024.191.06,1.237-.012.763,0-.191,0-.191-.036-.191a1.636,1.636,0,0,0,.048-.572m-.479-9.667c-.012.286-.036.477-.072,0,.024,0,.048-.095.072,0m-.12,2.855c-.023.1-.035.286-.035,0-.036-.379.035-.286.035,0m-.212-15.466v.012c.035,0,.1-.007.16-.009l-.047.033c-.114,0-.219-.005-.113-.036m.045,9.374c-.012-.1-.012-.569.024-.474-.012.474.048.379.048,0a.452.452,0,0,1-.024.19c0-.19.012-.285.035-.285.025-.191.025-.191.025.1.012.379-.072.474-.108.474m-.024,1.715a8.959,8.959,0,0,1,.024-.952,7.18,7.18,0,0,1-.024.952m-.12,7.424c-.035,0-.035.285-.048.476-.047.284-.047-.953.048-.476M38.128,66a4.532,4.532,0,0,0,0-.571c.035-.381.083.19.1.476,0,.191-.024.76-.06.57A1.431,1.431,0,0,1,38.128,66M37.87,31.362v.005h-.012v-.005h.012m-.018,23.646c-.012,0-.024,0-.035.1.023.286-.036.191-.036,0s.047-.381.071-.1m-.143-13c.012-.1.048-.1.06,0,0,.285-.072,0-.048.285a3.551,3.551,0,0,1,.012.953,3.55,3.55,0,0,0,.036.665c.012-.188.023-.093.035,0a6.275,6.275,0,0,0-.083,1.144c0-.1-.012-.1-.012-.1a3.038,3.038,0,0,0,.012.572c.036.095.024.76-.024.57.072-.379-.048-.761,0-1.237.012-.191-.024-.572.012-.476a4.432,4.432,0,0,0-.024-.951c.024-.191.012-.477.036-.762.012-.191-.048-.191-.048-.286a2.047,2.047,0,0,1-.036-.381c.024-.1.06.381.072,0M37.673,57.2c-.012-.286.036-1.809.036-.858a7.492,7.492,0,0,1-.036.858m-.06-19.187c0,.381.06.286.072.667h-.06c.024-.286-.048-.381-.012-.667M37.5,33.3c0,.029-.01.05-.015.05,0-.018,0-.036,0-.053l.016,0m-.086,4.617a4.447,4.447,0,0,1,0-.57c-.037.286-.048.1-.048-.1.036.286.119-.477.048.665m-.216-.665c.012.477.048.855.024,1.332-.036-.191,0-.572-.024-.763-.012-.092,0-.283-.024-.092a1.42,1.42,0,0,1,.024-.477m-.048,5.043c.036.1.012.382.048.382a.437.437,0,0,1,0,.19.95.95,0,0,1-.048-.572m.12,2.1c-.048.285-.1-.477-.048-.761-.048-.095-.036-.19-.012-.571.012.19.072.667.012.571,0,.191,0,.284.024.191a2.226,2.226,0,0,1,.012.284v.1a.346.346,0,0,1,.012.191m-.024-5.9c-.012-.285.036-.571.012-1.045a7.262,7.262,0,0,1-.024-.953c.036.1.012.476.036.667a1.933,1.933,0,0,1,.012.476c.048-.1.035.379.012.474-.024-.095-.024.286-.048.381m.071,0s-.011,0-.023.1l.023-.477c.025.667.037-.19.06.191l.037.19a5.6,5.6,0,0,1,.023-.667c.012,0,.024.477.024.572-.012,0,0,.1.013.1.047,0,.035-.19.083,0,.012.572.012,1.144.036,1.523-.024.1-.036.191-.036-.189.012-.667-.083-1.715-.1-.476a1.578,1.578,0,0,1,0-.667c-.059-.286-.071.095-.059.572-.036-.1-.036-.477-.06-.667-.012.19.012.286.012.476a.572.572,0,0,0-.037-.19c0,.1-.011.1-.011,0a3.427,3.427,0,0,1,.011-.382m.109,2.19c0-.191.011-.381.011-.572-.023-.19-.071-.855-.011-.76,0,.476.035.286.072.191-.013.855,0,.285-.049.379.012.286.025.857-.023.762M37.4,42.009a3.679,3.679,0,0,1,.035-.665,2.44,2.44,0,0,1-.035.665M37.326,44.2c-.013-.379.047-.856,0-1.141a.767.767,0,0,1-.013-.286c.109.19,0-.762.037-1.236a6.486,6.486,0,0,0,.048.95c-.025-.665.083-.1.072-1.141a2.4,2.4,0,0,0,.035.476.35.35,0,0,1,.012.189c.012.19.06.667.072.285-.072-.095-.048-.855.024-.569.024,0,0,.474-.036.379a1.011,1.011,0,0,1,.012.19c.012.191.036.1.06.191-.06,0-.072.381-.024.667a8.167,8.167,0,0,0,.024.855c-.036,0,0,.191-.012.382-.048,0-.012-.477-.048-.477-.036-.093-.024.286-.048.381a4.345,4.345,0,0,0-.084-1.236.935.935,0,0,0,.013.19c-.1-.476,0-.1-.048-.667-.012.1-.012.191-.024.286h-.012c.012.191.012.476.047.381,0,.286-.035.286-.047,0-.013.286-.036.572-.06.951m.239,11.858c-.036-.1-.012-.667-.06-.667.012-.476.072-.286.108-.19-.012.19-.012.476-.036.571,0,.1.012.286-.012.286m-.108.379c-.012-.379-.012-.379-.084-.286a1.56,1.56,0,0,1,.06-.379c-.035.379.072.191.024.665m.024,6.7c0-.1,0-.286-.024-.286.072-.381.06,1.427.024.286m.024-3.563c0,.286-.024-.1-.024-.19a3.75,3.75,0,0,0,.013-.382c.035-.1-.037-.19,0-.285a4.827,4.827,0,0,1,.011.857m.06-5.29-.024-.474c-.012,0-.012.1-.024.1-.012-.382.024-.382.048-.191,0,.286.036.286.048.569-.024-.095-.036-.095-.048,0m-.155-9.613s-.024-.1-.024.1-.024.19-.013,0a5.217,5.217,0,0,1,.037-.667c.023-.379.1-.1.06.286-.048-.1-.013.476-.048.571a2.288,2.288,0,0,0-.012-.286m-.168,6a2.158,2.158,0,0,0-.012.572c-.108.1-.048-.572.012-.572M37.29,54c-.024-.191-.012-.477-.06-.381.024-.286.024-.477.036-.668a4.024,4.024,0,0,0,.191,1.523c-.059.286-.119-.191-.167-.474m.068,47.634-.04.021c0-.079,0-.159.007-.24q.015.018.033.036Zm0,.1-.043.005v-.034l.042.005Zm-.032-1.509c.027.212.031.584.032.986l-.028.016c.01-.326.016-.663,0-1m-.084-27.955c.036.283.012.664-.024.283a2.283,2.283,0,0,0,.024-.283m-.024,11.04c-.036-.191-.06-.286-.072.1-.06-.476.1-.667.072-.1m0-2c0,.381,0,1.713-.072.953.06.095.012-.286.036-.477s.012-.19-.012-.19c.036-.286-.012-.953.06-.667-.048.095-.012.19-.012.381m-.072-1.713.024-.191a6.873,6.873,0,0,1,.06.858,4.033,4.033,0,0,0-.084-.667m.137,22.415a.071.071,0,0,0-.033.038.512.512,0,0,1-.031-.141.225.225,0,0,0,.072.015.649.649,0,0,1-.008.088m0-21.613c-.008.055-.014.149-.014.149.036.19-.036.762.036.667-.068.9-.082-.509-.022-.816m.032,21.6v-.072l.047,0v.068a.338.338,0,0,0-.047,0m.005.238a.338.338,0,0,1,.045-.008q0,.071,0,.135l-.042.008q0-.066-.006-.135m.056.363c-.013.008-.023.016-.034.024,0-.083-.007-.149-.012-.187l.04.011c0,.045,0,.089.006.129v.023m0-17.673c.037-.286.1-.474.132,0h-.024c0,.1.013.286-.011.286-.025-.1-.013-.381-.037-.476-.011.1-.047.572-.06.19m.055,18.775a.1.1,0,0,0,.017-.031.042.042,0,0,1,.008-.015.424.424,0,0,0,.042.006l.023.027-.09.013m.149-43.848c0,.286-.06.379-.06.191.012-.286.048-.286.048-.572.024-.286.012.1.012.1.024.191.036.477,0,.286m.048-2c0-.1.012-.286.024-.382.072.191-.012.286-.024.572a1.03,1.03,0,0,1-.024.188,1.338,1.338,0,0,1,.024-.378m0,45.824v-.006l.033,0-.034,0m.217-44.07c-.023-.572-.036-.381-.036.1a3.306,3.306,0,0,1-.059-.476c-.012.191,0,.381-.012.476-.011-.116-.018-.208-.021-.286,0,.049,0,.1,0,.149-.012.191-.036.191-.036.381h.012c-.012.284-.012.191-.048,0-.036,0,0-.19.012-.19-.06-.476-.012-.191.024-.381.014-.176.029-.135.036-.034-.01-.35.052-.308.024-.687-.012.476-.06-.286-.024-.476.024.571.024.1.048.381.024.476.119.1.119.667-.036-.1-.024.191-.036.381m.048-13.9h-.012c0-.382-.072-.286-.024-.667a1.069,1.069,0,0,1,0-.286c.036.1,0-.286.024-.286a1.434,1.434,0,0,1-.024.572c.012.19.036,0,.048.1a1.029,1.029,0,0,1-.024.19c.048,0,.012.286.012.382m.2,14.519-.012-.093c-.035,0-.059,0-.059-.381,0,0-.024,0-.012-.1.036-.1.1.285.083.569m.013,43.841c.212-.068.159.034.318.057a1.626,1.626,0,0,1-.318-.057m.371-.022c-.106.022-.106-.023-.053-.046.053,0,.265.011.265.034-.106.012-.212-.034-.212.012m.179-49.393a7.689,7.689,0,0,1,.036,1.048c-.036-.19-.024-.667-.036-1.048m.1-.518s0-.093-.012-.093c-.036.76-.048.093-.06-.381.06-.095.084.1.072.474m.072-2.052a1.8,1.8,0,0,1,.035-.665,4.856,4.856,0,0,1-.035.665m.1-2.664c.024-.381-.024-.476,0-.857.048.286,0,1.713,0,.857m.132,17.989a3.784,3.784,0,0,1,.1.951,9.478,9.478,0,0,1-.1-.951m.1-12.8c0-.286,0-.477-.048-.286a1.353,1.353,0,0,1,.012.381c-.036.1-.024-.381-.06-.381-.012-.191.036-.1.048,0a.928.928,0,0,1,.048-.284c.036-.095.024.379,0,.57m.12,32.785c-.036-.1-.013.381-.036.1,0-.762.107-.286.036-.1m.071-27.263c0,.284-.012.284-.036.188a2.482,2.482,0,0,0,.036-.569c.036.095.06.76,0,.381m.156-3.428c0-1.237-.084-.476-.06-.286.012.095,0,.191-.012.095-.048-.474-.06-1.427-.1-2.094.036.191.048,1.239.072,1.713.072-.665.132-.093.1.572m.155.286c-.023-.572-.071-.286-.119-.381.036-.1.083-.1.048-.381a3.7,3.7,0,0,0-.048-.57c.036,0,.06.474.1.474V55.77c.012.191.035.286.047.475-.024,0-.047,0-.035.285.023,0,.035-.19.047-.095-.047.286-.036,0-.036.572m.036-4.474c.036.095.012-.191.024-.381.012.1.024.1.036.1.037.381-.084.571-.06.286m.036,2.475h.061c.023.572-.1.191-.061,0m.2.667c-.025-.858-.06.1-.06.474-.036-.379-.024-.569-.083-.569.023-.286.1-.858.011-.763,0-.1-.036-.1-.011-.19.011-.191.035-.57.059-.286.012.381.072-.1.048.381a.886.886,0,0,1,.024.381,3.125,3.125,0,0,1,.012.572m.072-10.048c-.013.379-.072-.286-.072-.571.035.19.047-.572.047-.1a1.96,1.96,0,0,0,.025.667m-.048,31.028c.048-.1.084-.1.119-.19-.011.285-.1.381-.119.19m.1,10.09c-.024-.1.013-.379-.035-.379,0-.095.011-.095.011-.095.024-.1.048.095.048-.191a2.087,2.087,0,0,1,0,.474c.012.191-.011.1-.024.191m.072-2.664c.012.191.012.1.036,0,0,.76-.1.76-.036,0M40.27,39.44a2.3,2.3,0,0,1-.072-.571,6.125,6.125,0,0,0,0-1.049,11.412,11.412,0,0,0-.228-1.808,2.66,2.66,0,0,0-.107-.664c0-.191.012-.382.012-.572.012.095.023.19.036-.1.012.667.12-.382.047.476a.893.893,0,0,1,.024.191c.013-.477.1-.667.073,0-.024.381.035.1.047.474.036-.284.036.571.072.667,0,.1.012,0,.024,0,0,.381.084-.191.072.19-.108-.19-.012.953-.024,1.332a.756.756,0,0,0,.072.381c.048.191.011.858.059,1.144,0-.1.012-.191.025-.1,0,.191-.025.191-.013.381a3.179,3.179,0,0,1-.012.761c.012-.381-.048-1.332-.071-.667,0,.286.071.286-.024.381a6.153,6.153,0,0,0-.012-.856M40.329,57.1c.048.191.025.191.084.1-.036.285.036.285.012.476-.1-.476-.1.286-.1-.572m.108,1.427c-.06-.474.036-.664.024-.191.012.1.036.286,0,.286-.012,0-.048.286-.024-.1m-.005,45.758a2.925,2.925,0,0,1,.371-.033.632.632,0,0,1,.264-.012c-.052-.045.211-.034.264-.011-.053.023.159.023.211.045-.158.011-.317-.034-.581-.011.106.046-.371,0-.529.022m.74.035c-.052.011-.157,0-.052.022a.48.48,0,0,1-.265-.022,5.387,5.387,0,0,1,.74-.023c-.1.034-.317,0-.423.023m.688-.148c-.053.011-.106.023-.106.034.053,0,.053.011,0,.011-.105.023-.159-.022-.212-.011,0,0,0,.011.053.023l-.264-.023c.371-.023-.106-.034.106-.057l.1-.034a1.745,1.745,0,0,1-.37-.022,2.116,2.116,0,0,1,.318-.023c0,.011.052,0,.052-.011,0-.046-.1-.035,0-.08.318-.011.636-.011.847-.034.053.023.1.034-.1.034-.371-.011-.953.08-.265.091a.519.519,0,0,1-.37,0c-.159.057.053.068.317.057a2.333,2.333,0,0,1-.371.056,1.951,1.951,0,0,0,.265-.011m.9-.068c-.106,0-.212-.011-.317-.011-.106.022-.476.068-.423.011.265,0,.159-.034.106-.068.475.011.159,0,.211.045.158-.011.476-.022.423.023m.563-17.2a3.047,3.047,0,0,1-.53-.023,2.4,2.4,0,0,1,.53.023m-.274,14.352h.23a3.39,3.39,0,0,1-.466.06c-.043-.037.16-.036.236-.06m.347,1.969a2.938,2.938,0,0,1-.53-.022,2.287,2.287,0,0,1,.53.022m-.265.864a.816.816,0,0,1,.369.034,1.212,1.212,0,0,1-.369-.034m.528.272c.053-.034.212-.011.212-.045,0-.011.053-.011.106,0-.106.034-.106.1-.318.045m.265-.159c.106-.1-.424,0-.688-.034a2.149,2.149,0,0,0,.529-.045c-.369.022-.053-.08-.634-.068a.8.8,0,0,0,.265-.035c0-.011.052-.022.1-.011.106-.011.371-.057.159-.068-.053.068-.475.045-.316-.023,0-.023.263,0,.21.034a.348.348,0,0,1,.106-.011c.106-.011.053-.034.106-.057,0,.057.212.068.371.023.053-.034.265.045.475-.023,0,.034.106,0,.212.011,0,.046-.265.012-.265.046-.052.034.159.023.212.045a1.454,1.454,0,0,0-.687.08.348.348,0,0,0,.106-.011c-.265.09-.053,0-.371.045.053.011.106.011.159.023v.011c.106-.011.265-.011.212-.045.159,0,.159.034,0,.045.159.011.317.034.528.057a3.821,3.821,0,0,0-.634,0,.256.256,0,0,1-.159.011m.477.091c-.053.045-.106.034-.318.012.106-.012.371-.069.318-.012.1,0,.157,0,.1-.023a.759.759,0,0,1,.158-.011h.053a.115.115,0,0,1,.106-.011c.159.045-.265.09-.422.045m.634-.159c.106,0,.106.023,0,.011-.212.023-.212-.034-.371-.034-.21-.022-.053-.091.159-.056-.053.045.265.011.318.045a.774.774,0,0,0-.159.011s-.053.023.053.023m.74-.3c-.211-.068-.422.046-.687,0-.106-.011-.318.023-.265-.011,0-.057-.369.011-.528.023-.106-.023-.265-.012-.424-.034-.106-.012-.106.045-.159.045a.653.653,0,0,1-.212.034c-.052-.022.212-.057,0-.068-.052-.011-.052-.045,0-.057.159,0,0,.068.159.046a1.178,1.178,0,0,1,.53-.012,1.145,1.145,0,0,0,.369-.034c-.1-.011-.052-.022,0-.034.053.068.424.057.635.08-.052,0-.052.011-.052.011a1.023,1.023,0,0,0,.317-.011c.053-.034.423-.023.317.022m-.017-17.117c.053.023.159.035,0,.035-.211.034-.159-.035,0-.035m.07,16.356c-.211.035-.159-.034,0-.034.053.023.159.034,0,.034m1.322-.4c.159-.045.952,0,.477,0-.212-.023-.265.022-.477,0m.371.659c0,.034.159.034.265.045.158.046-.53.046-.265-.045m-.106-1.386a2.147,2.147,0,0,1,.477.011,2.147,2.147,0,0,1-.477-.011m.9,2.317a.7.7,0,0,0,.318.011c.053.1-.318.046-.318-.011m.424-1.533a1.575,1.575,0,0,1,.369.034c-.052.056-.316-.012-.369-.034m1.428,1.488c-.106.023-.265.011-.212.056-.158-.022-.265-.022-.37-.033a1.41,1.41,0,0,0,.846-.182c.159.057-.106.113-.264.159m.158-.261-.264.022c0,.012.053.012.053.023-.212.011-.212-.023-.106-.045a2.849,2.849,0,0,0,.317-.046c-.053.023-.053.034,0,.046m.212-1.034a2.524,2.524,0,0,1,.582-.034,3.958,3.958,0,0,1-.582.034m1.957,1.351a1.153,1.153,0,0,1,.476-.011c-.159,0-.318.011-.476.011m.846-.477c-.423.069-.317-.034-.582,0,.265.012-.159.057-.264.023.317-.023.053-.023.211-.045.265-.023.053-.114.371-.114-.053.034.106.023.212.034-.318.023-.212.034.052.034-.052.046-.158.023-.264.057.106.011.212,0,.264.011m1.9.239c-.053,0-.159,0-.159.023-.212-.068.793-.057.159-.023m1.125-7.789c-.02.011-.02.021-.01.052a3.6,3.6,0,0,1-2.335,1.775c-2.086.581-5.49.374-6.57-1.391-.052.042-.1-.145-.135-.145-.041-.031-.02-.093-.051-.114s-.042-.042-.053-.062c.125-.021.042-.146-.02-.052a1.356,1.356,0,0,1-.156-.374.141.141,0,0,1,.083.1c.021-.052.166,0,.146-.062-.053-.032,0-.063,0-.094-.042-.073.041-.083-.084-.145-.072-.021-.02-.063-.062-.083-.021.031-.01.062,0,.1.073.041-.072.093-.021.166-.062-.032-.093-.135-.01-.135.031,0,.031-.021.031-.031s-.031-.011-.041.01c-.073.031-.011-.125-.136-.062.073-.073-.134-.311-.02-.291.052.011.093,0,.073.062,0,.042.072,0,.02.063.021.02.094-.011.052.041.052-.01.031.042.052.073.031-.021.052-.031.01-.063-.01-.051-.145-.135-.031-.145.063-.02.011-.114-.041-.093,0-.021.01-.042-.01-.052-.021.021-.021.083-.063.094-.021,0-.01-.032-.021-.052s-.01-.032-.03-.011c-.011,0-.022,0-.022-.01-.072-.011.022.073.042.083-.145.041-.072-.2-.114-.27,0-.052-.073-.3-.021-.3a.087.087,0,0,0,.063-.093c-.011-.021-.021-.011-.031-.011a.04.04,0,0,1-.032-.01l.01.01c-.01.073-.051,0-.051-.041a5.613,5.613,0,0,0,.041-.6c0-.052.042-.011.063-.011.02-.02.041.042.061.011-.02-.042-.072-.052-.092-.094s-.011-.1.031-.1.03-.094-.021-.052c.021-.031.01-.083.051-.083.094-.021-.061-.146.011-.239.011.135.093.114.1,0,.021-.073-.021-.041-.073-.062.031-.063,0-.177.073-.218.1-.032.021-.114.041-.177.052-.1.073-.259.187-.311-.031-.052,0-.062.031-.1-.01-.021.011-.031.021-.041,0,.01.01.02.01.031.042-.042-.01-.094.052-.125.031-.072.094-.031.063-.083.052-.062.031-.1.1-.072-.031-.125.146-.218.208-.312.073-.042.176-.2.249-.207.041.02.083-.031.031-.042a3.657,3.657,0,0,1,.872-.488c.072-.062.176-.114.239-.021.083.032.062-.124-.011-.072-.01.01-.02.01-.041,0a6.35,6.35,0,0,1,1.847-.374c-.01.052.042.1.083.083.063-.072.135.011.187.042s.073-.052.021-.062a.1.1,0,0,0-.094,0c-.02-.021-.031-.042-.072-.042-.073-.1.768-.031.84-.083a9.3,9.3,0,0,1,2.439.373,5.4,5.4,0,0,1,.955.457c.031.021.062.042.052.083.083,0,.239.115.239.208.02,0,.01-.031.02-.052a.753.753,0,0,1,.094.093h-.031a.048.048,0,0,0,.052.042.255.255,0,0,1,.083.228.038.038,0,0,0,.062.042c.062-.031-.145-.26-.01-.177a2.7,2.7,0,0,1,.6.986c-.031.042.042.011.031.042.011.093.156.342-.01.321.073-.041-.073-.041-.052-.145-.031.062-.093.042-.114-.02-.021-.042,0-.084-.031-.125-.031-.062-.125.01-.1.062-.021.063.062.031.062.083,0,.073.083.062.115.114.062.073.082-.01.155.073a.023.023,0,0,1,.021.021c-.021.093.073.093.093.155.125.333-.166.353-.415.343a5.824,5.824,0,0,1-.861-.021.327.327,0,0,1-.259.011.67.67,0,0,1-.146.01c-.072.01-.031-.1-.1-.062-.052.114-.1.031-.207.062-.021,0-.032,0-.042-.01-.021-.031-.093.03-.156.01-.373-.062-.934.166-1.151-.249a1.028,1.028,0,0,0-.322-.374c-.052-.062-.166-.062-.2-.124a.023.023,0,0,0-.021-.021.181.181,0,0,1-.145-.031,5.128,5.128,0,0,0-.561-.073,3.191,3.191,0,0,0-.83.042c-.093-.011-.187.1-.27.051-.145.115-.363.167-.488.322-.1.052-.114.229-.239.249.042.063-.02.115-.03.167a1.394,1.394,0,0,0-.084.508.062.062,0,0,1-.031.062c-.083.083.1.125,0,.218.083.063.042.27.083.363a1.871,1.871,0,0,0,.28.509c.052.083.2.1.218.187,0,.031.021.052.042.031.052-.011.094.031.145.041.094.1.291.052.374.146.042,0,.3.01.29.051,0,.011.011.021.021.011a3.368,3.368,0,0,0,1.277-.208c.664-.3.342-.819,1.287-.726.28-.01.56.011.809,0,.093.031.467-.083.447.052-.011.031.02.052.051.052,0-.052-.041-.093.042-.1.031-.01.073-.021.094.021-.073.01-.052.2,0,.218.03,0,.051-.031.072-.063.073-.062-.031-.134-.042-.176a2.939,2.939,0,0,1,.3.011c.051-.073.124.041.165-.021.2.021.457-.042.6.1.115.281-.072.571-.145.841-.031.062-.042.145-.1.176m-8.915-9.237c0,.034.159.034.265.046.158.045-.53.045-.265-.046m-.371-.659c.159-.045.953,0,.477,0-.212-.022-.265.023-.477,0m.265-.727a2.147,2.147,0,0,1,.477.011,2.147,2.147,0,0,1-.477-.011m0-.875c-.106-.011-.159.023-.319.023a1.625,1.625,0,0,1,.319-.068c0,.011.053.034,0,.045m1.324,1.659a1.64,1.64,0,0,1,.37.034c-.052.057-.317-.011-.37-.034m1.8.193a2.544,2.544,0,0,1,.584-.034,3.853,3.853,0,0,1-.584.034m6.251.409c.106,0,.423.023.317.057a.463.463,0,0,1-.264.034,1.47,1.47,0,0,0-.318,0c-.212-.034.106-.08.265-.091m.371,16.379a.477.477,0,0,1-.263.034,1.47,1.47,0,0,0-.318,0c-.212-.034.106-.08.265-.091.106,0,.423.022.316.057M58.1,86.148a3.144,3.144,0,0,1-.529.091c-.053-.045.371-.079.529-.091m-.475,16.413c-.053-.045.37-.079.528-.091a3.11,3.11,0,0,1-.528.091m2.855,1.738a.709.709,0,0,0-.157-.023c.157-.034.37-.011.157.023m2.275-2.59c-.053-.045-.053-.08-.106-.114.159.012.212.091.106.114m1.641,2.658-.106-.023a2.335,2.335,0,0,1,.476-.057,1.421,1.421,0,0,0-.37.08m.447-.127a.747.747,0,0,0,.081.014c.106-.035.424.033.371-.035.5.065-.281.078-.452.021m1.034.127c.053-.056-.159-.011-.265-.034s-.105-.011-.105.011c-.159-.033-.53.012-.372-.057.054.046.107.012.213.012.211,0,.951,0,.529.068m.581-.068c-.105.034-.159.057.053.068-.265.057-.37-.091-.053-.068m.383-7.063a2.261,2.261,0,0,1-.032.529.081.081,0,0,0,.021.094c-.01.02-.031.041-.01.072.052-.083-.011.115-.021.135-.021.083-.125.1-.187.114-.072-.02-.4.063-.363-.041,0-.021,0-.031-.021-.031,0,.021.021.093-.01.083s-.083.01-.094-.031c-.518.062-1.214.01-1.816.031-.322.01-.643-.021-.965.01a.744.744,0,0,0-.156-.01c-.031,0-.021-.031-.041-.042-.011.063-.156.031-.218.052-.011-.031-.021-.01-.052-.01s-.125-.021-.052-.052c-.062-.031-.031.041-.073.052-.041-.011-.2.042-.166-.021h-.031c-.737.063-1.619,0-2.4.021-.146-.011-.333.01-.467-.011-.218.021-.581.084-.685-.165-.042-1.381,0-2.751-.011-4.11,0-.9-.01-1.817,0-2.709.021-.3.4-.26.613-.249.155-.011.321-.011.487-.021.4.031.8,0,1.215.021.27.02.82-.135.8.29.021,1.4,0,2.761.01,4.152H62.1c.042.124.011.28.073.394.3.187.695.041,1.027.093.229-.02.468.011.7,0,.062,0,.145-.02.2.011.021-.011.021-.011.042.01a.827.827,0,0,1,.353-.021.411.411,0,0,1,.248.031c.032-.093.281-.02.364-.031.052,0,.073.073.114.094.01-.042-.041-.063-.062-.083a2.74,2.74,0,0,1,.415-.011c.353,0,.706-.02,1.059.011.238,0,.207.259.218.425a1.623,1.623,0,0,1-.011.322c-.021,0-.041-.01-.052.021.135.114.021.415.063.581M62.177,84.808a1.308,1.308,0,0,1,.318.022.564.564,0,0,1-.318-.022m.423.465c.159.012.212.092.106.114-.053-.045-.053-.079-.106-.114m4.238-.079c.423,0,.423.091,0,.034.106-.011.053-.011,0-.034m.042,16.356c.106-.011.053-.011,0-.034.423,0,.423.091,0,.034m.475,2.6c-.159-.034-.263-.09,0-.125v.023c.053,0,.159-.011.159.012-.053.022-.211.011-.265.034.054.011.318.045.106.056m.795-2.5c-.054,0-.054-.011-.054-.011-.052-.023.054-.046-.105-.046a.684.684,0,0,1,.263,0c.106-.011.053.012.106.023-.053.023-.21-.011-.21.034m.633.738c-.423,0-.158-.1-.052-.034-.053.034.212.012.052.034m.16-.1c-.16,0-.053-.034-.053-.056.106.034.211.056.265.079-.107.011-.107-.023-.212-.023m.687-.329c.053-.034-.106-.012-.212-.023.053-.011.053-.023.053-.034.212-.034.318.08.159.057m.476.25c.106-.023.371-.012.212-.057.106,0,.159.023.159.045.105.023-.053.012-.106.023v.012c.317.011-.159.045-.265-.023m.371-.319a1.922,1.922,0,0,1-.635-.1c.211.012.635,0,.687.069-.264-.046-.211,0-.052.033m-.265.637c-.106-.057-.106-.034-.318-.045.107-.023.688-.057.424.011-.106,0-.106,0-.106.034m.053.386c-.053-.057.053-.08.264-.068,0,0-.052,0-.052.011.423.034.052.046-.212.057m.37-.352c-.106.011-.053-.034,0-.045-.106,0-.106-.034-.158-.046-.053-.034.211-.023.316,0-.158,0-.264,0-.158.046a.448.448,0,0,1,.212-.012c.053.034-.212.023-.212.057m.212-.795c.053-.023.053-.034.211-.023a1,1,0,0,1,.318-.011c-.476.022.053.056.264.056-.211.034-.317.023-.317.08-.159-.023-.476-.091-.423-.011-.053,0-.053.033-.107.011-.1-.011-.316-.034-.158-.057.212-.011-.053-.068.212-.045m.951.193c.16.045,0,.034.318.034-.318.023-.158.068-.212.113-.053-.034-.053-.079-.212-.045-.21-.012-.21.045-.316.045,0-.034.264-.057.264-.09h-.211c.106-.012.159-.034.263-.046,0,.023,0,.046.159.034,0-.022-.106-.034-.053-.045m.265-.637a.445.445,0,0,1-.265-.045c.16,0,.424,0,.212.023,0,.011.053.011.053.022m-.265.875c.053-.011.106,0,.053.012-.263.045-.793.057-1.163.091.1-.034.688-.046.952-.068-.37-.069-.052-.126.318-.092-.688,0-.266.08-.16.057m-1.163-.045a1,1,0,0,1,.265,0c-.053.023-.053.045-.053.057-.107-.012-.318-.023-.212-.057m.37-.227v-.057c.318-.023.106.091,0,.057m.477-.648h.053l0-.015h.217a.47.47,0,0,1-.272.015M71,103.7c0,.011,0,.023.053.034.159-.023.106.034,0,.034s-.211-.045-.053-.068m.212.329c-.264-.011-.159-.068-.106-.1a2.158,2.158,0,0,1,.318.034c.053,0,.159-.011.159.012-.053.034-.371.011-.371.056m.423.125c-.1-.022-.211-.034-.211-.056.211.034.106-.069.369-.023-.21.011-.21.011-.158.079m.105-.318c.106.023.477-.011.477.034-.159.012-1-.034-.477-.034m.477-2.567a.27.27,0,0,0,.159,0h.085c-.217.083.165.083-.3.083.106-.045.106-.023.053-.079m.371,2.647a1.388,1.388,0,0,1-.212-.023c.106-.068.159.011.318.023a.337.337,0,0,1,.1.023.46.46,0,0,1-.21-.023m.846.136a1.369,1.369,0,0,0-.212-.011c-.053-.034-.106.034-.159,0,.053-.068.318.011.477-.012.158,0-.053.023-.106.023m.371-.034a3.158,3.158,0,0,0-.318-.045c-.159-.023.053-.012.053-.012.106-.022.265-.034.158,0,.159,0,.211.057.107.057m-.265-.182a1.425,1.425,0,0,0,.211.034v-.011c.158.011.106.011,0,.045,0,.035-.1,0-.1-.011-.265.057-.106.011-.212-.023-.159-.023,0-.045.106-.034m.317-.352c0,.034,0,.057-.211.057,0,0,0,.022-.053.011-.053-.034.158-.09.316-.079Zm.105-1.159a.868.868,0,0,0-.316-.034c.052-.034.422-.056.211,0,.158,0,.158.012.105.034M76.552,91.9c-.011.394.02.788-.011,1.183.021.269-.84.176-1.038.176-.093-.124-.082-.01-.145.011-.083-.032-.332.041-.322-.053-.02-.041-.093,0-.052.042-.041.011-.082-.083-.041,0-.063-.01-.01-.083-.052-.083-.011.031-.031-.021-.042-.031.135.2-.145.093-.259.114-.042,0-.062-.083-.1-.021-.352.114-1.152-.2-1.069.436a.619.619,0,0,0,0,.2c0,.052-.041.125-.031.177.041-.021.031.488,0,.5.041,0,.041,0,.031.031-.01.353-.01.716,0,1.069-.01.758.01,1.526-.01,2.294.01.28-.353.291-.529.238a.036.036,0,0,0-.031.011c-.011,0-.032.01-.032,0-.352.042-.778-.011-1.152.01.114-.062,0-.031-.051,0-.218.021-.457,0-.686,0-.653.032-.643-.062-.643-.675.01-.031.041,0,.052,0,.062.021.083-.082.093-.01.021.01.021.021.021.031.031.032.021-.041.01-.052-.052-.031-.031-.1-.072-.134s-.1.02-.094-.022c0-.736-.01-1.483,0-2.21.011-.384-.01-.758,0-1.152-.02-.249.094-.726-.3-.695-.539-.042-1.079,0-1.629-.021a2.946,2.946,0,0,1-1.132-.073c-.134-.2-.041-.467-.072-.7,0-.342-.01-.737,0-1.007.01-.155-.021-.353.083-.477a6.082,6.082,0,0,1,1.235-.073c.3.031.623-.01.934.021.042,0,.1-.021.146.01,0,.011,0,.042.02.052,0-.031,0-.072.052-.062.031,0,.083-.031.1,0-.021.031-.021.073-.042.1-.072-.052-.072.052-.051.093.02-.031.031,0,.062,0,.021-.052.083.01.125-.021.01-.01.031.021.051,0s.031-.052,0-.052-.1-.051-.031-.062c.021-.031.042-.083.093-.072.727,0,1.474-.011,2.2,0-.01.041.031.041.031,0,.093.02.228-.042.311.02.706-.072,1.578.011,2.346-.02.124.02.3-.031.394.02.052-.041.135-.01.2-.01a5.017,5.017,0,0,1,.964.01c.26.063.146.716.167.935m-8.6-6.629a.7.7,0,0,1,.263,0c.107-.011.053.012.107.023-.054.023-.211-.011-.211.034-.053,0-.053-.011-.053-.011-.053-.023.053-.046-.106-.046m.794.8c-.424,0-.16-.1-.053-.034-.053.034.212.011.053.034m.106-.159c.106.034.212.056.265.079-.106.012-.106-.023-.212-.023-.159,0-.053-.033-.053-.056m1.959-.466c.053-.022.053-.034.212-.022a1,1,0,0,1,.318-.012c-.477.023.053.057.264.057-.211.034-.317.022-.317.079-.159-.023-.477-.091-.424-.012-.053,0-.053.035-.106.012-.106-.012-.317-.034-.159-.057.212-.011-.053-.067.212-.045m.954.432c.052-.012.106,0,.052.011-.263.046-.794.057-1.165.091.106-.034.689-.045.953-.068-.37-.069-.051-.125.318-.091-.688,0-.265.079-.158.057M70.6,85.83a1,1,0,0,1,.265,0c-.053.023-.053.046-.053.057-.106-.011-.318-.023-.212-.057m.371-.227v-.057c.318-.023.106.091,0,.057m.9.182c-.054-.034-.054-.08-.213-.045-.21-.012-.21.045-.317.045,0-.034.264-.057.264-.091h-.211c.106-.011.16-.034.264-.046,0,.023,0,.046.159.035,0-.023-.106-.035-.052-.046.158.046,0,.034.317.034-.317.023-.159.069-.211.114m-.054-.875a.382.382,0,0,1,.265-.034c0,.023-.159.045-.265.034m.159.068c0,.011.053.011.053.023a.439.439,0,0,1-.264-.046c.158,0,.424,0,.211.023m-.528-.023H71.5c0-.045.054-.056.265-.034a.472.472,0,0,1-.317.034m-.69,1.193c-.159,0-.265,0-.159.046a.449.449,0,0,1,.212-.011c.053.033-.212.022-.212.056-.106.012-.053-.034,0-.045-.106,0-.106-.034-.158-.046-.053-.034.211-.022.317,0m-.476-.318c.106,0,.159.023.159.046.1.022-.053.011-.106.022v.012c.317.011-.159.045-.265-.023.106-.023.371-.011.212-.057m0,.341c-.106,0-.106,0-.106.034-.106-.057-.106-.034-.318-.045.106-.023.688-.057.424.011m.211.352s-.052,0-.052.011c.423.035.052.046-.212.057-.053-.057.053-.079.264-.068m-.052-.954a1.958,1.958,0,0,1-.636-.1c.212.011.636,0,.688.067-.264-.045-.211,0-.052.035m-.848-.739a1.539,1.539,0,0,1,.318-.011.484.484,0,0,1-.318.011m0,.807c.053-.034-.106-.011-.212-.023.053-.011.053-.023.053-.034.212-.034.318.08.159.057m2.6-.693c.158.034.158-.034.265-.011-.265.09.159.09-.318.09.106-.045.106-.022.053-.079m.635-.045c.053-.012.158-.034.158,0,0,.011.16.045-.053.022-.263.057-.369-.034-.105-.022M73.935,86a.849.849,0,0,0-.317-.035c.053-.033.423-.056.212,0,.158,0,.158.012.1.035m-.053,1.147-.052.012c0,.034,0,.056-.212.056,0,0,0,.023-.053.012-.053-.034.159-.091.317-.08m14.78,7.483c-.01-.01-.032-.01-.032-.042-.01-.01-.01.011-.01.021-.02,0,0-.041-.01-.052s-.01-.02,0-.031c-.042-.01-.031-.01-.052-.031-.073-.01-.1.062-.114.125.041.01.062.051.114.051.01,0,.031.032.042.011.186.207-.042.727-.084,1.027-.02.073-.114-.01-.166.032-.021.031-.021-.011-.041-.021-.062,0-.031.083.01.062.01,0,.021,0,.021.01-.011.063.073.083.125.052.01-.021-.032-.052.031-.072a4.369,4.369,0,0,1-.167.446c-.01.052-.082-.042-.082.021a.034.034,0,0,1-.021-.011c-.011-.052-.052.011-.063-.083-.051.052.052.063.042.094,0,.01.01.02.01.031.032-.042.073.062.011.02v.042c.052-.052.031.073-.011.062-.01-.031-.031-.031-.062-.031,0,.011.01.021.01.031s-.051.073-.01.073c-.01-.031.01-.031.031-.041-.01.02-.021.031.011.031,0,.01-.021.041-.042.02,0,.052-.031.156-.083.146-.01.072,0-.031-.031-.021a.23.23,0,0,1,0,.083,2.509,2.509,0,0,1-.457.488,3.615,3.615,0,0,1-1,.55c-.114.031-1.079.394-1.069.249-.031-.021,0,.073-.073.062-.02,0-.01-.02-.01-.031-.021-.062-.041,0-.031.031-.031-.02-.094.042-.145.031-.083-.01-.26.1-.27-.01-.073-.01,0,.135-.208.042,0,.01.011.031-.01.02a.089.089,0,0,1-.052.011c-.011-.011.021-.063-.021-.031-.042.135-.1-.094,0-.042.031.031.031-.01.021-.021-.011.021-.042,0-.063-.01-.01-.042-.031,0-.021.031,0,.114-.051.062-.134.093a3.038,3.038,0,0,1-.436.021c-.052-.01.021-.052,0-.072s.01-.021,0-.032c-.042,0-.021.052-.052.063.021-.052,0-.052-.041-.042,0,.042.02.083.062.073-.031.02-.114.031-.135-.011-.011.063-.3.031-.384.042-.062-.011-.145.021-.2-.021.031-.021.083-.031.093-.062a.255.255,0,0,1-.093.031c-.021.021-.042.062-.083.052-.312-.011-.633.01-.944-.011a.2.2,0,0,1-.115,0c-.156.063-.353-.02-.519.021a3.235,3.235,0,0,1-.633-.041.038.038,0,0,1,.01.031c-.051,0-.218.042-.218-.031-.041-.011-.01.041-.051.031-.177.01-.353,0-.53,0a4.008,4.008,0,0,1-1.059-.062.589.589,0,0,1-.061-.416c-.042-.02.01-.082-.021-.124.01-.031,0-.073.01-.094.021.011.031,0,.031-.02.052-.052-.083-.021-.02-.114-.073.031.01-.115-.011-.125.041.01-.021.114.072.093,0-.02-.031-.01-.041-.02.01-.032.041-.021.063-.042-.011-.031-.042.01-.022-.041-.041.01,0,.051-.041.062.01-.021-.02-.042,0-.052-.041-.01-.052-.021-.031-.062a2.068,2.068,0,0,1,0-.249c-.021-.239.011-.509,0-.758a3.511,3.511,0,0,1,.021-.581c-.01-.011.01-.042-.01-.052s-.021-.021-.021-.031a1.1,1.1,0,0,0-.011-.322c.032-.425.011-.841.021-1.276.011-.011.041,0,.021-.021-.063-.26,0-.54-.042-.8.052-.156-.01-.322.021-.467.031-.032-.021-.021-.01-.084V92.14a.034.034,0,0,1,.01.021c.031-.093-.031-.228,0-.322.031.021-.01.073.041.073.031.041.031.01.031-.01.022-.052-.061-.052-.061-.1-.032-.021.01-.042-.011-.073a.049.049,0,0,1,0-.052c.021-.02.031-.041.021-.062-.052,0-.052-.633.062-.561-.042-.145.519-.114.218-.072.021.052.011.031.052.041s.042-.01.052-.02.021-.021.021-.042.041-.01.041.021c-.01,0-.01,0-.021-.011a.124.124,0,0,0,.052.094c-.01,0-.021-.011-.031-.011,0,.031.052.042.042.011s-.032-.042-.021-.1c.021.031.021.021.021,0s.052-.031.062,0c.01-.041.031-.01.052-.01a.432.432,0,0,1,.28.02v-.02l.021.02c0-.031.01-.02.031-.02.072-.031.01.093.062.072,0-.052.042-.114.094-.072a3.465,3.465,0,0,1,.467-.011c.374-.01.757.021,1.141-.01.488.021.883,0,1.38.01.239,0,.488.021.738,0,.041,0,.031.011.041.042,0-.083.55,0,.633,0a3,3,0,0,1,.872.124c-.01.042.041.031.062.031-.052-.114.571.1.654.125.083.062.342.052.322.176.041.083-.021-.083.041-.052.083.042.177.063.26.115a3.489,3.489,0,0,1,.9.591c.1.1.156.135.177.27.01.011.031.011.052-.01.041,0,.073.072.083.114.031.052.083.093.114.145a3.271,3.271,0,0,1,.477,1.36c-.051.1.042.051.022.135.02.093.01.01-.022.01.022.021-.02.031.011.042.031.031-.052.031-.062.062.051.031-.011.207.093.166.031.083-.031.166-.01.249m6.2-11.089c-.036-.19-.06-.285-.072.1-.06-.475.1-.665.072-.1m0-1.992c0,.38,0,1.707-.072.949.06.1.012-.284.036-.474s.012-.19-.012-.19c.036-.285-.012-.949.06-.664-.048.094-.012.189-.012.379m-.072-1.707.024-.189a6.811,6.811,0,0,1,.06.854,4.034,4.034,0,0,0-.084-.665m.072-7.018a2.283,2.283,0,0,0,.024-.283c.036.283.012.663-.024.283m.062,7.818c-.008.055-.014.147-.014.147.036.191-.036.76.036.665-.068.9-.083-.506-.022-.812m-.062-25.551a.549.549,0,0,0-.018-.109,4.371,4.371,0,0,1-.042.643c-.012-.156,0-.313-.012-.469a6.7,6.7,0,0,0,.047,1.853c0-.065,0-.134,0-.211.024,0,.012.19.024.285.029-.078.026.412-.014.442-.011.1-.027.149-.044.1a3.884,3.884,0,0,1-.038.975c.011-.264.012-.775.032-1a1.967,1.967,0,0,1-.032-.264,4.244,4.244,0,0,0,0-.781c-.048-.156-.012,1.562-.012,1.875-.012.78.084.624.048,1.87,0-.312-.012-.625-.024-.156,0,.312.024.468,0,.781a12.751,12.751,0,0,1,.012,1.562c.036.156.036-.625.06-.625-.024,1.4.036.156.072.933,0,.313-.048.469-.048,0-.1,2.343-.048,0-.108.938-.031.409-.026,2.965-.016,4.228-.006,1.707-.012,3.393,0,5.019,0-1.249,0-2.463,0-3.552,0,1.15,0,2.343,0,3.562l0,.429c.036-.313.132-.469.084.312,0-.156-.012-.781-.036-.312,0,.624-.048-.156-.048.469,0,.379,0,1.28,0,2.348,0,1.616,0,3.238,0,4.816,0,.1,0,.212,0,.323a3.074,3.074,0,0,0,.038.627c-.016.175-.026.4-.034.657.005.145.011.287.022.42.012.469-.024.312-.024,0,0,1.076-.007,1.012-.008.22,0,.421,0,.886,0,1.354-.276-.01-.642.012-.962,0-.261-.011-.261.023-.174.046-.959-.091-2.7-.023-4.009-.046-4.358-.011-8.629.012-12.985,0a.885.885,0,0,0,.175.023c-9.5-.08-19.172.023-28.759-.034-2.091.079-5.14-.068-6.883.045a1,1,0,0,0-.433,0c0-6.524-.013-12.975,0-19.532a2.73,2.73,0,0,0-.024.313c.084-17.07-.024,2.043.036-15.184-.083-3.759.073-9.239-.047-12.371a4.23,4.23,0,0,0,0-.941c.041-.228.041-1.676.022-2.924a1.843,1.843,0,0,0,.406-.035c.261.034,2.086.057,2.173.023.174-.011.435.011.694-.011h.087a3.779,3.779,0,0,0,.435.022c.7.023.435-.1.522-.148,0-.045.609.012.522-.034s.087-.022.087-.022a2.431,2.431,0,0,0,.52-.023c.268.007.337-.008.291-.025l-.085-.009.015-.007c-.035,0-.081-.011-.134-.016a1.06,1.06,0,0,1,.522.045c.174-.011.435-.011.174.023.261.023.781-.023.781.046-.087.034,0,.079-.346.079a1.759,1.759,0,0,1,.346.046,4.527,4.527,0,0,1-.781,0,5.327,5.327,0,0,0,1.216.034c.348-.011,1.651.057,1.477-.034.261.034.522.011.87.034.041-.007.057-.012.058-.017l-.078.006a.025.025,0,0,1-.015-.021c-.194-.012-.6-.012-.506-.041-.041-.007.013-.015.091-.026-.008-.013.086-.025.195-.032l.023-.006,0,0,.107,0H50.4l-.027.009a.186.186,0,0,0,.094,0c.211-.012.264-.023.158-.068.318.034.265.068,0,.09a.215.215,0,0,0-.06.017,1.423,1.423,0,0,1,.357.04c-.087.012-.174,0-.261.012.95.112.442-.021,1.033-.045H51.58c0-.023.106-.011.159-.023-.044-.028.23-.025.246.014.054.01.083.025.055.041a1.274,1.274,0,0,1,.543.037c-.147-.011-.431-.012-.555-.031a.658.658,0,0,1-.147.031,1.38,1.38,0,0,0-.435,0,7.353,7.353,0,0,0,1.044.011,10.194,10.194,0,0,1,1.043-.046c-.175,0-.349.012-.088.023a2.759,2.759,0,0,1,.436,0A4.167,4.167,0,0,1,54.75,34c.087-.034-.347-.034-.347-.057.781.023.086-.034.52-.068.173,0,.261.045,0,.045,1.305.091,0,.046.522.1.261.034,2.086.022,2.608.011,2.173,0,4.692.011,7.039,0a9.242,9.242,0,0,0,1.129-.023c.261-.011.174.023,0,.023,3.3.023,7.649-.011,10.6,0,1.477,0,2.954.023,4.345,0-.174-.034-.261-.125.173-.08-.086,0-.434.012-.173.034.348,0-.087.046.26.046.7-.011,4.521.057,4.521-.034.52.079,1.825.023,2.606.034.7-.023,1.651.045,2.26-.023a3.689,3.689,0,0,0,.7.012c.348-.057-.522-.08-.609-.023-.435.011,0-.057.087-.069a3.608,3.608,0,0,0,.522-.011c0,.023-.087.023-.174.034.435-.023.348.069.781.023-.087.034-.087.034-.433.046.174.034.433-.012.52.011.7.034,1.479-.023,2.173.011-.063-.033.195-.018.408-.021-.049,1.462-.077,3.679-.011,3.966-.036.468-.06,3.745-.024,3.9.012.312-.012.781.012,1.246V43.3c-.036.156,0,.469-.024.781-.024,1.25.108.781.156.937.048,0-.012,1.093.036.938s.023.155.023.155a7.153,7.153,0,0,0,.025.934c-.008.482.007.606.026.522l.009-.153a.143.143,0,0,1,.008.022c.006-.063.012-.142.016-.235a3.153,3.153,0,0,1-.048.937c.012.313.012.781-.024.313a9.679,9.679,0,0,1-.047,1.4c-.036-.156-.084,0-.084-.621a5.209,5.209,0,0,1-.048.621,13.658,13.658,0,0,1,0-1.4,16.1,16.1,0,0,0-.036,2.183,22.569,22.569,0,0,0,.036,2.652c-.036.468-.012.937-.036,1.562a.334.334,0,0,0,.017.106c0-.036,0-.081,0-.143a.036.036,0,0,1,.021-.03,5.263,5.263,0,0,1,.043-.908c.009-.07.017.026.028.165a1.225,1.225,0,0,1,.034.353l.006.04-.005,0c0,.063,0,.129,0,.191v0h0v.069l-.01-.048a.562.562,0,0,0,0,.168c.012.38.024.474.071.284-.035.57-.071.475-.1,0m.024,4.268c0-.285-.012-.57-.012-.854a3.431,3.431,0,0,1,.012.854m-.012-7.776c-.108.1-.048-.569.012-.569a2.136,2.136,0,0,0-.012.569m.06,2.751c-.024-.19-.012-.475-.06-.38.024-.284.024-.474.036-.664a4,4,0,0,0,.191,1.517c-.06.284-.119-.19-.167-.473m.179,31.1c-.024-.1-.012-.38-.036-.474-.012.094-.048.569-.06.189.036-.285.1-.472.132,0h-.024c0,.1.012.285-.012.285m.012-22c0-.1,0-.285-.024-.285.072-.38.06,1.422.024.285m.1-3.4c0,.285-.06.377-.06.19.012-.285.048-.285.048-.57.024-.285.012.095.012.095.024.19.035.475,0,.285m.048-1.992a3.69,3.69,0,0,1,.024-.379c.071.19-.013.284-.024.569a1.126,1.126,0,0,1-.024.188,1.3,1.3,0,0,1,.024-.378m.215,1.884c-.024-.57-.036-.38-.036.094a3.111,3.111,0,0,1-.06-.474c-.012.19,0,.38-.012.474-.012-.127-.018-.225-.022-.307v.036c-.012.19-.037.19-.037.379h.013c-.013.283-.013.191-.049,0-.035,0,0-.189.013-.189-.06-.475-.013-.19.023-.38.015-.175.03-.134.037-.033a2.788,2.788,0,0,0,.023-.55c-.012.475-.06-.284-.023-.474.023.569.023.094.047.379.024.475.12.1.12.665-.036-.095-.024.19-.036.38m.048-13.845h-.012c0-.38-.072-.285-.024-.665a1.063,1.063,0,0,1,0-.285c.036.1,0-.284.024-.284a1.419,1.419,0,0,1-.024.569c.012.19.036,0,.048.1a1.029,1.029,0,0,1-.024.19c.048,0,.012.285.012.38m.2,14.33-.013-.092c-.035,0-.059,0-.059-.38,0,0-.024,0-.012-.1.036-.1.1.284.084.567M98.236,33h-.012c.012.19.024.854-.024.475,0-.19-.012-.759.036-.475m-.024,2.371c-.024.285-.036.1-.06.475-.036-.285.024-.665.06-.475m-.06,1.042a1.79,1.79,0,0,1-.012.76,5.636,5.636,0,0,1,.012-.76m-.012,4.743c-.012-.285-.012-.475.036-.38-.024.19-.012.475-.036.664a2.312,2.312,0,0,1,.036.285c-.06.285-.048-.38-.072-.665.012.1.024.1.036.1m-.084-5.12c0-.1.012-.1.012,0a2.416,2.416,0,0,1-.024.567c-.047-.095.036-.38.012-.567m-.1-.949a3.3,3.3,0,0,0-.06.664c-.047-.285.024-.76.06-.664m-.107,0a2.57,2.57,0,0,0-.024-.475c.071,0,.071.854.024.475m.007-3.714c-.014.024-.028.048-.041.073-.091,0-.037-.035-.148-.04l-.006-.024q.085-.007.195-.009m-.054.1-.009.016h-.028c0-.006.014-.011.037-.015M97.642,33.8H97.7v.016h-.061Zm.064.092a2.433,2.433,0,0,1-.033.434,1.44,1.44,0,0,1-.031-.428l.064-.006m-.127-2.5V31.4h-.024v-.013l.026,0m0,2.409v.02h-.031v-.023l.032,0m0,.106c0,.239,0,.463-.006.659-.009-.253-.016-.469-.023-.656l.029,0m-.054.139c-.045.225-.055.127-.06-.076a.113.113,0,0,0,.044-.011c0,.033.01.063.016.087M97.4,54.253a5.742,5.742,0,0,1,.108-1.139,6.443,6.443,0,0,1-.072,1.232c.048-.472,0-.378-.036-.093m.115-20.3,0,0-.042-.009v-.021l.04-.008,0,.041m-.014-.158v.027h-.034v-.03l.033,0m-.233.769a9.5,9.5,0,0,1,.156,1.558c-.036.313.048.469.012.938a3.491,3.491,0,0,0,.048.781c.047.937-.036.937-.06.156a1.193,1.193,0,0,0-.024-.313,2.749,2.749,0,0,0-.06-.78c-.024-.313-.048-.625-.048-.934-.012-.625-.084-1.093-.1-1.874,0-.039,0-.075-.006-.109l.07,0c0,.124.008.293.008.579m.084,9.532a2.372,2.372,0,0,1-.012.473c-.1.285-.024-.662.012-.473m-.036,6.165a6.489,6.489,0,0,1,.012-.855,6.5,6.5,0,0,1-.012.855M97.248,33.8l0,.043-.075,0-.005-.045.077,0m-.125,20.17c0,.191-.024.285-.048.285-.024.188-.012-.094-.024-.19h-.012c-.012.568-.048-.284.024-.474.024.19.012.664.06.379m0,1.043c-.024-.1-.048-.1-.06-.1.012-.19.024-.57.06-.38a3.068,3.068,0,0,1,0,.475M96.979,51.5c0-.285.036-.095.06-.095-.036.189-.06.38-.084.474-.012-.19.024-.19.024-.379m-.2,1.706c.023.19.059,1.232-.013.759,0-.189,0-.189-.035-.189a1.674,1.674,0,0,0,.048-.57m-.97,13.547a1.379,1.379,0,0,1-.036-.473,4.5,4.5,0,0,0,0-.569c.036-.38.084.189.1.474,0,.191-.023.758-.06.568m.012-16.689c-.048.283-.048-.949.048-.474-.036,0-.036.285-.048.474m.168-7.87a8.892,8.892,0,0,1,.024-.949,7.585,7.585,0,0,1-.024.949m.024-1.709c-.012-.095-.012-.568.023-.472-.012.472.048.377.048,0a.463.463,0,0,1-.023.19c0-.19.012-.286.036-.286.023-.189.023-.189.023.1.013.377-.071.472-.107.472m.131,6.069c-.036-.377.036-.285.036,0-.024.1-.036.285-.036,0m.084-2.844c.024,0,.048-.094.072,0-.012.285-.036.475-.072,0M96.3,55a7.638,7.638,0,0,1,.036,1.045c-.036-.19-.024-.665-.036-1.045m.1-.651s0-.093-.011-.093c-.036.758-.048.093-.06-.379.06-.1.083.094.071.472m.073-1.91a1.725,1.725,0,0,1,.036-.662,5.309,5.309,0,0,1-.036.662m.1-2.653c.024-.38-.024-.475,0-.855.048.285,0,1.707,0,.855m.132,17.922a3.725,3.725,0,0,1,.1.947c-.047-.187-.059-.567-.1-.947m.1-12.884c0-.285,0-.475-.047-.285a1.346,1.346,0,0,1,.012.38c-.036.1-.024-.38-.06-.38-.012-.19.036-.095.048,0a.97.97,0,0,1,.047-.283c.036-.094.025.378,0,.568m.085-3.6v0c0-.017,0-.014,0,0m.035,36.4c-.03-.08-.018-25.368-.027-33.744.024,8.375.086,33.586.027,33.744m.072-27.3c0,.282-.012.282-.036.187a2.521,2.521,0,0,0,.036-.567c.036.095.06.757,0,.38m.156-3.416c0-1.232-.084-.474-.06-.285.012.095,0,.19-.012.095-.048-.472-.06-1.422-.1-2.086.036.19.048,1.234.072,1.707.072-.663.132-.093.1.569m.155.285c-.024-.57-.071-.285-.119-.38.036-.1.083-.1.048-.379a3.669,3.669,0,0,0-.048-.568c.036,0,.06.473.1.473V55.96c.012.19.036.285.048.473-.024,0-.048,0-.036.284.024,0,.036-.19.048-.095-.048.285-.036,0-.036.57m.036-4.457c.036.094.012-.191.024-.38.012.1.024.1.036.1.036.379-.084.569-.06.285m.036,2.466h.06c.024.569-.1.189-.06,0m.2.664c-.024-.854-.059.095-.059.473-.036-.378-.024-.568-.084-.568.024-.285.1-.854.012-.759,0-.1-.036-.1-.012-.19.012-.19.036-.568.06-.285.012.38.071-.095.047.38a.88.88,0,0,1,.024.379,3.017,3.017,0,0,1,.012.57m.073-9.875c-.013.377-.073-.285-.073-.57.036.19.048-.569.048-.095a1.948,1.948,0,0,0,.025.665M97.589,76.9c.049-.1.084-.1.12-.19-.012.285-.1.38-.12.19m.1,10.052c-.024-.1.012-.378-.036-.378,0-.1.012-.1.012-.1.024-.1.048.1.048-.189a2.069,2.069,0,0,1,0,.472c.012.19-.012.1-.024.19m.072-2.654c.012.19.012.1.036,0,0,.757-.1.757-.036,0m.083-46.089a11.223,11.223,0,0,0-.227-1.8,2.747,2.747,0,0,0-.107-.662c0-.19.012-.38.012-.57.011.095.023.19.035-.094.012.664.12-.38.048.474a.89.89,0,0,1,.024.19c.013-.475.1-.664.072,0-.024.38.036.095.048.472.036-.282.036.57.072.665,0,.1.012,0,.023,0,0,.38.084-.19.072.19-.107-.19-.012.949-.023,1.327a.778.778,0,0,0,.071.38c.048.189.013.854.06,1.138,0-.094.012-.189.024-.094,0,.19-.024.19-.012.38a3.2,3.2,0,0,1-.012.757c.012-.38-.047-1.327-.071-.665,0,.285.071.285-.025.38a5.791,5.791,0,0,0-.012-.852,2.336,2.336,0,0,1-.072-.57,5.871,5.871,0,0,0,0-1.044m.24,18.41a1.377,1.377,0,0,1-.036-.567v.1c.048,0,.06.095.036.472m-.036,0c0,.285,0,.76-.024.38-.012,0-.012.1-.023.1a1.286,1.286,0,0,1,.047-.475m-.165,47.291c.011-.007.019-.015.029-.022a.074.074,0,0,0,.021.019l-.05,0m.094-46.626c.047.19.024.19.083.1-.036.285.036.285.012.475-.1-.475-.1.284-.1-.57M98.1,58.8c-.012,0-.048.285-.024-.1-.06-.473.036-.663.024-.19.012.094.036.285,0,.285m.024-1.612a1.386,1.386,0,0,1-.036-.475,1.119,1.119,0,0,1,.036.475m.048,19.333a1.68,1.68,0,0,1,.024-.569,3.818,3.818,0,0,1-.024.569m0-23.79a4.5,4.5,0,0,1,.012.569,1.452,1.452,0,0,1-.012-.569m.072-3.332c.012-.19-.024-.285-.024-.57a4.4,4.4,0,0,1,.071.57c-.011,0-.035.1-.047,0m.047-4.268c-.083.38-.023-.947-.071-1.137a6.292,6.292,0,0,1-.048-1.139c-.012-.19-.06-.1-.084-.19.012-.567-.084-.947-.1-1.516.047-.1.035.474.083.474a3.1,3.1,0,0,1,.012.38l.024-.285a5.282,5.282,0,0,0,.1.852c.012.19.024.285.036.19s.024-.1.024.1c-.012.285.012.475.012.76a8.55,8.55,0,0,0,.011.947,1.512,1.512,0,0,1,0,.569m-.059-3.318c-.024,0-.036,0-.012-.19a1.817,1.817,0,0,1,.012-.57c0,.1.012.1.012.191-.024.189.012.569-.012.569m0-1.329a.8.8,0,0,1-.024-.282c.012-.19-.012-.1-.024-.1-.012-.19-.012-.379.024-.284l-.024-.285c.036,0,.048.1.048.379.024-.094.024,0,.024.19,0,.378.047.1.071-.094,0,.282-.059.662-.1.472" fill="#222"/>
        <path id="Path_10" data-name="Path 10" d="M95.352,59.53c0,.049,0,.11,0,.187,0-.064,0-.134,0-.187" fill="#222"/>
        <path id="Path_11" data-name="Path 11" d="M94.748,76.24c0-1.09,0-2.177,0-3.247v-.009c0,1.12,0,2.269,0,3.38,0-.042,0-.083,0-.124" fill="#222"/>
        <path id="Path_12" data-name="Path 12" d="M94.745,80.924c0-1.286,0-2.881,0-4.56-.007,1.547-.014,3.409,0,4.56" fill="#222"/>
        <path id="Path_13" data-name="Path 13" d="M94.745,83.3c0-.229.006-.444.01-.64-.013-.418-.007-.87,0-1.284,0-.135-.006-.287-.007-.455,0,1.029,0,1.86,0,2.379" fill="#222"/>
        <path id="Path_14" data-name="Path 14" d="M85.413,94.787a1.345,1.345,0,0,0-.342-1.152c-.031-.052-.125-.083-.1-.156,0-.021-.021-.062-.052-.031,0,.01-.01.031-.031.01-.021,0-.031,0-.041-.021a1.508,1.508,0,0,0-.592-.238c-.021-.011-.021-.021-.01-.042.051-.031.03-.135-.032-.114s-.031.1-.01.135c-.031.01-.042-.052-.052-.073-.021.021.01.042.021.073a.413.413,0,0,1-.156-.031c-.042,0-.114.031-.145-.01-.384.031-.758,0-1.131.01a1.119,1.119,0,0,0-.416.052c-.041.031-.051.1-.083.135-.031.01-.041.041-.051.072-.021.011.01.011.01.031s.031.021.021.042c-.021.1.052.3-.031.363-.032,0,0,.042.01.031a.039.039,0,0,1,.031-.01c-.01.083.042.218-.041.27.072.062.02.2.041.29-.021.115.01.229-.01.343s.02.249-.011.342c-.041-.01-.041.032-.02.042.051-.021.051.571.01.55-.156-.041-.031.042-.052.093.114-.041.125.1.207.166.332.063.706-.031,1.028.042.1-.052.3,0,.436-.021s.269-.031.394-.031c.177-.052.363-.1.54-.166.031.021.041.021.052-.021s.031-.02.062-.02c-.041-.021.042-.073.062-.053a.02.02,0,0,0,.032-.01c-.011-.031.01-.041.031-.062s.031.011.052,0c0-.073.062-.093.093-.145a1.584,1.584,0,0,0,.249-.54c.01.011.042.011.042-.01-.032,0-.042-.063,0-.063.02-.01,0-.031-.011-.041.021-.01.011-.01,0-.031" fill="#222"/>
        <path id="Path_15" data-name="Path 15" d="M72.805,98.181a.01.01,0,0,0,.01.01h.032c0-.01.01-.01.01-.021-.021-.02-.052-.02-.052.011" fill="#222"/>
        <path id="Path_16" data-name="Path 16" d="M94.786,54.778a.559.559,0,0,1-.016.173c.014.239.045-.045.073.033,0-.069,0-.143,0-.222-.015.021-.038.01-.057.016" fill="#222"/>
        <path id="Path_17" data-name="Path 17" d="M94.84,54.542c0,.078,0,.152,0,.22.014-.022.018-.078,0-.22" fill="#222"/>
        <path id="Path_18" data-name="Path 18" d="M94.837,54.523l0,.019c0-.053,0-.107,0-.166l.05.264c0-.013.006-.021.009-.021v0l-.035-.187c.01-.081.021-.021.031-.005v-.035c-.014-.1-.025-.241-.034-.353,0,0-.006.011-.008.029-.008-.1-.014-.161-.019-.194-.006.045-.011.157-.017.37a.8.8,0,0,0,.024.283" fill="#222"/>
        <path id="Path_19" data-name="Path 19" d="M94.847,57.526a1.719,1.719,0,0,0-.01-.5V57.01a3.831,3.831,0,0,1-.023.453c.013.053.024.07.034.063" fill="#222"/>
        <path id="Path_20" data-name="Path 20" d="M94.8,57.6l.006.021,0-.066c0,.012,0,.03,0,.045" fill="#222"/>
        <path id="Path_21" data-name="Path 21" d="M95.016,47.886a.954.954,0,0,0,.008-.452c-.006.059-.012.1-.017.13a1.627,1.627,0,0,0,.009.322" fill="#222"/>
        <path id="Path_22" data-name="Path 22" d="M50.312,33.958l.012,0-.094,0,.147-.048c-.007,0-.011-.005-.011-.008h0l-.1.033c-.045-.01-.013-.019,0-.029h-.019a1.889,1.889,0,0,1-.195.032s.006.006.015.008a.761.761,0,0,0-.106.019,1.863,1.863,0,0,0,.2.015.271.271,0,0,0,.157-.023" fill="#222"/>
        <path id="Path_23" data-name="Path 23" d="M50.569,33.952h-.125c.013.013.007.036.011.053.059,0,.1.009.094.016.136-.014-.024-.043.02-.07" fill="#222"/>
        <path id="Path_24" data-name="Path 24" d="M46.615,33.788a.319.319,0,0,0-.249-.007.415.415,0,0,1,.07.016.532.532,0,0,0,.179-.009" fill="#222"/>
        <path id="Path_25" data-name="Path 25" d="M52.028,34l.012-.006-.037,0,.025,0" fill="#222"/>
        <path id="Path_26" data-name="Path 26" d="M51.985,33.949a.569.569,0,0,0-.278.009H51.7a1.2,1.2,0,0,1,.252.022c.029-.013.039-.023.035-.032" fill="#222"/>
        <path id="Path_27" data-name="Path 27" d="M50.325,33.955l.119,0c-.012-.013-.043-.017-.119,0" fill="#222"/>
        <path id="Path_28" data-name="Path 28" d="M46.568,104.151a.32.32,0,0,0-.249-.006.446.446,0,0,1,.069.015.512.512,0,0,0,.18-.009" fill="#222"/>
        <path id="Path_29" data-name="Path 29" d="M51.963,104.356l.026,0,.011-.006-.037,0" fill="#222"/>
        <path id="Path_30" data-name="Path 30" d="M50.282,104.319l.12,0c-.012-.013-.043-.016-.12,0" fill="#222"/>
        <path id="Path_31" data-name="Path 31" d="M50.27,104.322l.012,0-.094,0,.147-.048c-.007,0-.011-.005-.011-.008h0l-.1.033c-.045-.01-.013-.02,0-.029h-.019c-.056.013-.133.023-.2.032a.029.029,0,0,0,.016.007.945.945,0,0,0-.107.019c.026,0,.089.01.2.016a.273.273,0,0,0,.158-.023" fill="#222"/>
        <path id="Path_32" data-name="Path 32" d="M50.413,104.37c.059,0,.1.008.094.015.136-.013-.023-.042.02-.069H50.4c.012.014.007.036.011.054" fill="#222"/>
        <path id="Path_33" data-name="Path 33" d="M51.667,104.322h-.009a1.351,1.351,0,0,1,.252.022c.03-.012.039-.023.035-.031a.557.557,0,0,0-.278.009" fill="#222"/>
        <path id="Path_34" data-name="Path 34" d="M37.158,57.239c0,.012,0,.03,0,.046l.006.021,0-.067" fill="#222"/>
        <path id="Path_35" data-name="Path 35" d="M37.2,54.212c0,.078,0,.152,0,.22.014-.022.018-.078,0-.22" fill="#222"/>
        <path id="Path_36" data-name="Path 36" d="M37.373,47.531a.967.967,0,0,0,.008-.455,1.019,1.019,0,0,1-.017.131,1.648,1.648,0,0,0,.009.324" fill="#222"/>
        <path id="Path_37" data-name="Path 37" d="M37.194,54.192l0,.02c0-.054,0-.108,0-.167l.05.264c0-.012.006-.02.01-.021v0l-.036-.187c.011-.081.021-.021.031-.005v-.036c-.014-.1-.025-.241-.034-.354a.1.1,0,0,0-.008.029c-.008-.1-.014-.161-.019-.194-.005.045-.011.158-.017.371a.808.808,0,0,0,.024.284" fill="#222"/>
        <path id="Path_38" data-name="Path 38" d="M37.194,56.706v-.018a4.081,4.081,0,0,1-.024.456c.014.052.025.069.034.062a1.735,1.735,0,0,0-.01-.5" fill="#222"/>
        <path id="Path_39" data-name="Path 39" d="M37.143,54.449a.573.573,0,0,1-.015.172c.013.241.044-.044.072.034,0-.07,0-.143,0-.223-.015.021-.038.01-.057.017" fill="#222"/>
      </g>
    </g>
  </g>
</svg>
