<svg xmlns="http://www.w3.org/2000/svg" width="9.031" height="9.031" viewBox="0 0 9.031 9.031">
  <path style="fill:#F43908;" id="Path_48" data-name="Path 48" d="M154.566,94.509l1.732,1.732h-4.933l1.741-1.741.61.605a.18.18,0,0,0,.255,0Zm1.732-2.242h-4.931l2.476,2.455Zm-5.188.253v3.466l1.74-1.74Zm7.237-2.13v7.728a.651.651,0,0,1-.651.651h-7.729a.651.651,0,0,1-.651-.651V90.39a.652.652,0,0,1,.651-.652H157.7A.652.652,0,0,1,158.347,90.39Zm-1.432,2.057a.544.544,0,0,0-.542-.542H151.29a.544.544,0,0,0-.542.542V96.06a.543.543,0,0,0,.542.542h5.083a.542.542,0,0,0,.542-.542Zm-.362,3.539V92.522l-1.731,1.732Z" transform="translate(-149.316 -89.738)" fill="#222"/>
</svg>
