<svg xmlns="http://www.w3.org/2000/svg" width="9.031" height="9.031" viewBox="0 0 9.031 9.031">
  <path style="fill:#F43908;" id="Path_47" data-name="Path 47" d="M287.044,75.782a.26.26,0,0,1,0,.411c-.051.055-.1.1-.16.16a3.529,3.529,0,0,0-.253.263.633.633,0,0,1-.494.209.592.592,0,0,1-.06,0,2.854,2.854,0,0,1-1.025-.307A5.839,5.839,0,0,1,283.115,75a5.347,5.347,0,0,1-.946-1.575,1.873,1.873,0,0,1-.147-.822.6.6,0,0,1,.181-.39l.448-.448a.3.3,0,0,1,.2-.093.281.281,0,0,1,.192.092l0,0c.08.075.156.152.236.235l.125.127.358.359a.251.251,0,0,1,0,.407c-.038.038-.075.076-.113.113-.11.113-.215.218-.329.32l-.007.007a.267.267,0,0,0-.068.3l0,.012a2.846,2.846,0,0,0,.424.692h0a4.817,4.817,0,0,0,1.166,1.061,1.527,1.527,0,0,0,.162.088c.047.024.092.046.13.07l.016.009a.266.266,0,0,0,.329-.058l.449-.449a.3.3,0,0,1,.2-.1.267.267,0,0,1,.189.1l0,0Zm2.24-5.579v7.728a.65.65,0,0,1-.651.651H280.9a.651.651,0,0,1-.652-.651V70.2a.652.652,0,0,1,.652-.652h7.728A.651.651,0,0,1,289.284,70.2ZM287.5,75.984a.629.629,0,0,0-.2-.45l-.721-.724a.609.609,0,0,0-.444-.2.632.632,0,0,0-.449.2l-.415.413-.1-.052c-.047-.024-.092-.046-.13-.07a4.5,4.5,0,0,1-1.081-.985,2.65,2.65,0,0,1-.354-.559c.107-.1.207-.2.3-.3l.111-.111a.6.6,0,0,0,0-.909l-.359-.358c-.041-.041-.083-.083-.122-.125-.079-.082-.161-.166-.247-.245a.622.622,0,0,0-.44-.193.642.642,0,0,0-.446.193l0,0-.446.451a.956.956,0,0,0-.285.61,2.291,2.291,0,0,0,.168.975,5.634,5.634,0,0,0,1,1.675,6.192,6.192,0,0,0,2.058,1.612,3.21,3.21,0,0,0,1.156.341c.027,0,.056,0,.083,0a.987.987,0,0,0,.757-.326l.006-.006a2.989,2.989,0,0,1,.229-.238c.057-.054.115-.11.171-.169A.658.658,0,0,0,287.5,75.984Zm-2.479-3.548a1.689,1.689,0,0,1,1.377,1.376.175.175,0,0,0,.174.147.163.163,0,0,0,.031,0,.176.176,0,0,0,.145-.2,2.043,2.043,0,0,0-1.665-1.666.179.179,0,0,0-.2.145A.176.176,0,0,0,285.02,72.436Zm2.853,1.264a3.369,3.369,0,0,0-2.742-2.742.177.177,0,1,0-.058.35,3,3,0,0,1,2.45,2.45.177.177,0,0,0,.175.147l.03,0A.175.175,0,0,0,287.873,73.7Z" transform="translate(-280.253 -69.551)" fill="#222"/>
</svg>
