<svg xmlns="http://www.w3.org/2000/svg" width="9.031" height="9.031" viewBox="0 0 9.031 9.031">
  <path style="fill:#F43908;" id="Path_49" data-name="Path 49" d="M288.633,89.738H280.9a.652.652,0,0,0-.652.652v7.728a.651.651,0,0,0,.652.651h7.728a.65.65,0,0,0,.651-.651V90.39A.651.651,0,0,0,288.633,89.738Zm-2.664,5.218h0l-1.2.869,1.363-.354.572,1.764-1.939-1.41-1.939,1.41.742-2.279-1.939-1.411,2.4.005.742-2.28.738,2.28h2.4l-1.868,1.355h0Z" transform="translate(-280.253 -89.738)" fill="#222"/>
</svg>
