<svg xmlns="http://www.w3.org/2000/svg" width="13.708" height="13.709" viewBox="0 0 13.708 13.709">
  <path style="fill:#F43908;" id="Path_44" data-name="Path 44" d="M306.386,110.068H294.654a.988.988,0,0,0-.988.989v11.731a.988.988,0,0,0,.988.989h11.732a.988.988,0,0,0,.988-.989V111.057A.988.988,0,0,0,306.386,110.068Zm-2.135,4.941a5.476,5.476,0,0,1-8.423,4.862,3.877,3.877,0,0,0,2.851-.8,1.928,1.928,0,0,1-1.8-1.337,1.923,1.923,0,0,0,.87-.033,1.926,1.926,0,0,1-1.544-1.911,1.915,1.915,0,0,0,.871.24,1.926,1.926,0,0,1-.6-2.57,5.462,5.462,0,0,0,3.967,2.011,1.926,1.926,0,0,1,3.281-1.755,3.863,3.863,0,0,0,1.222-.467,1.93,1.93,0,0,1-.846,1.065,3.865,3.865,0,0,0,1.105-.3A3.9,3.9,0,0,1,304.251,115.009Z" transform="translate(-293.666 -110.068)" fill="#222"/>
</svg>
