<svg xmlns="http://www.w3.org/2000/svg" width="9.031" height="9.031" viewBox="0 0 9.031 9.031">
  <path style="fill:#F43908;" id="Path_46" data-name="Path 46" d="M150.681,73.9a.142.142,0,0,0-.094.035,3.152,3.152,0,0,1,.58-1.72q.474.106.956.174a3.966,3.966,0,0,0-.376,1.511Zm1.538,2.079c-.286.039-.571.088-.853.149l0,0c.038.043.077.086.118.128l.006.006.034.034.008.008.034.034.007.006c.028.027.057.053.086.079l0,0,.039.034.01.009.034.028.011.009.035.028.01.008c.03.023.06.046.091.068l.009.007.036.026.015.01.032.022.015.01.033.022.014.009.048.03h0l.1.056c.023.014.046.026.07.039l0,0c.037.02.075.039.113.058h0l.055.026.006,0,.055.024,0,0,.057.024h0l.056.023.008,0,.055.02.006,0,.057.02h0l.057.019.009,0,.056.018.008,0,.057.016h0l.058.015.01,0,.057.013.009,0,.049.01.01,0a4.405,4.405,0,0,1-.486-.531A4.334,4.334,0,0,1,152.219,75.983Zm-.473-1.79h-1.065a.146.146,0,0,1-.094-.034,3.156,3.156,0,0,0,.372,1.384h0l.025.047,0,0,.025.043,0,.006.026.042,0,.005c.039.063.08.126.122.186h0q.456-.1.921-.17A4.114,4.114,0,0,1,151.746,74.193Zm.887-2.651a5.464,5.464,0,0,1,.532-.612,3.178,3.178,0,0,0-1.8,1.036c.3.063.6.114.9.154A5.05,5.05,0,0,1,152.633,71.542Zm2.765.862a3.859,3.859,0,0,1,.384,1.5h1.148v0l0-.052v0q0-.056-.009-.111v0l-.006-.055v0c0-.036-.009-.073-.015-.109v0l-.008-.05,0-.017-.006-.033,0-.02-.006-.029-.005-.022-.006-.028,0-.022-.007-.028-.005-.021-.012-.045-.006-.025-.007-.023-.007-.026-.006-.021-.008-.027-.006-.019-.009-.029-.005-.015c-.013-.039-.027-.078-.041-.116h0l-.014-.035,0-.009-.014-.035,0-.009-.014-.035,0-.006a3.177,3.177,0,0,0-.321-.58c-.319.07-.64.126-.964.17Zm-.1.529v0l-.011-.03,0-.008-.009-.028,0-.01-.01-.025-.005-.013-.009-.023-.006-.015-.008-.021-.007-.018-.007-.017-.015-.036,0,0-.016-.037,0-.005-.036-.079,0,0-.016-.034,0-.008-.015-.031,0-.007-.019-.037c-.4.042-.792.066-1.189.069V73.9h1.588A3.451,3.451,0,0,0,155.3,72.933Zm-.047-.8h0q.458-.057.908-.15a3.178,3.178,0,0,0-.516-.481h0l-.038-.028,0,0-.036-.026-.006,0-.036-.025-.007-.005-.035-.023-.008-.005-.034-.022-.01-.006-.033-.02-.011-.007-.033-.019-.012-.007-.032-.019-.013-.007-.032-.018-.014-.007-.031-.017-.015-.007-.031-.016-.016-.008-.03-.015-.017-.008-.03-.014-.018-.008-.029-.013-.02-.008-.028-.012-.022-.009-.026-.011-.026-.01-.023-.009-.048-.019h0l-.064-.022h0l-.065-.021h0l-.065-.02h0l-.065-.018h0l-.066-.017h0l-.067-.015h0l-.067-.014h0l-.068-.012h0a5.531,5.531,0,0,1,.558.618A4.906,4.906,0,0,1,155.256,72.13ZM153.9,70.951V72.22c.346,0,.692-.021,1.036-.055A5.1,5.1,0,0,0,153.9,70.951Zm.482,5.781.022-.023.011-.011.02-.022.01-.011.022-.024.009-.009.03-.034.006-.007.025-.028.01-.012.021-.024.011-.013.021-.026.01-.012.03-.037h0l.048-.06.027-.036.019-.026.036-.048.01-.014.039-.056,0-.006.042-.062h0l.031-.047c.031-.048.06-.1.088-.144-.36-.037-.723-.056-1.085-.06V77.16l.017-.013.006,0,.012-.01.007-.005.013-.01.007-.006.016-.012.005,0,.021-.017.006-.005.016-.013.008-.007.015-.012.009-.007.017-.015.007-.006.024-.021,0,0,.021-.019.009-.007.018-.016.009-.008.018-.017.009-.008.026-.024h0l.028-.026.008-.008.02-.019.01-.01.019-.019.01-.009.023-.024.006-.005.03-.03Zm3.961-6.529v7.728a.651.651,0,0,1-.651.651h-7.729a.651.651,0,0,1-.651-.651V70.2a.652.652,0,0,1,.651-.652H157.7A.652.652,0,0,1,158.347,70.2Zm-2.9,6.871-.106-.273a3.142,3.142,0,0,1-.987.366,4.548,4.548,0,0,0,.511-.539,4.33,4.33,0,0,0,.267-.369l-.125-.321L155,75.921h0l-.111-.285q-.49-.045-.984-.049V74.193h1.588a3.85,3.85,0,0,1-.039.433v0l-.009.059v0l-.005.031,0,.016-.005.026,0,.023,0,.021-.008.035,0,.009h0l.273.1.011-.049,0-.019.006-.028.005-.026,0-.022.006-.03,0-.014a4.1,4.1,0,0,0,.06-.571h1.148a3.158,3.158,0,0,1-.074.554v0l-.01.041,0,.018-.009.036-.006.023-.009.032-.008.027-.008.029-.01.032-.008.024-.018.056,0,.01-.008.022-.005.014-.007.02-.006.016-.007.018-.007.018-.006.016-.008.02-.006.015-.009.023,0,.012-.015.034.273.1a3.458,3.458,0,0,0-.393-3.4.151.151,0,0,0-.026-.035,3.462,3.462,0,0,0-2.641-1.381.155.155,0,0,0-.043,0h-.084l-.126,0a.14.14,0,0,0-.061,0A3.461,3.461,0,0,0,151,71.952a.131.131,0,0,0-.027.035,3.462,3.462,0,0,0,2.594,5.52.121.121,0,0,0,.038.006l.025,0c.041,0,.083,0,.125,0h.1a.107.107,0,0,0,.025,0A3.437,3.437,0,0,0,155.445,77.074Zm1.486-.655.791-.356-2.655-.954,1,2.587.365-.782.789.789.5-.5Zm-4.071-4.7a4.606,4.606,0,0,0-.287.434q.519.054,1.041.063V70.912A4.955,4.955,0,0,0,152.86,71.723Zm-.823,2.181h1.577V72.509a11.826,11.826,0,0,1-1.189-.077A3.712,3.712,0,0,0,152.037,73.9Zm1.577,3.29V75.878q-.543.009-1.085.067A4.144,4.144,0,0,0,153.614,77.194Zm-1.226-1.524a11.961,11.961,0,0,1,1.226-.081v-1.4h-1.578A3.8,3.8,0,0,0,152.388,75.67Z" transform="translate(-149.316 -69.551)" fill="#222"/>
</svg>
